<?xml version="1.0" encoding="UTF-8"?>
<svg id="Layer_1" data-name="Layer 1" xmlns="http://www.w3.org/2000/svg" viewBox="0 0 213.73 196.96">
  <defs>
    <style>
      .cls-1 {
        fill: #f0f0e2;
      }

      .cls-2 {
        fill: #424242;
      }

      .cls-3 {
        fill: #3b7fbf;
      }
    </style>
  </defs>
  <path class="cls-1" d="M166.47,47.28v14.84c0,.84-.68,1.52-1.52,1.52h-24.3c-.78,0-1.43.58-1.51,1.35-.81,7.78-4.78,46.82-3.51,57.44,1.41,11.82,5.63,15.76,12.66,16.32s13.2-4.33,13.75-13.87c.04-.76.66-1.36,1.41-1.41l1.4-.09c.89-.06,1.63.66,1.62,1.55-.08,4.84-1.2,19.14-11.15,26.77-12.1,9.29-25.61,5.35-32.92-2.81s-3.38-34.33-2.81-40.24c.49-5.19,3.16-37.1,3.8-44.77.07-.89-.64-1.65-1.53-1.64l-22.51.25c-.8,0-1.46.63-1.5,1.43-.48,8.8-3.22,56.16-7.8,74-5.06,19.7-16.32,20.82-23.07,17.16s-8.44-12.38-3.66-18.85,15.76-20.82,19.42-37.14c3.06-13.67,3.96-30.1,4.17-35.08.04-.84-.62-1.55-1.46-1.57-4.95-.15-20.53.08-24.85,8.8-5.15,10.41-5.43,8.16-5.43,8.16l-2.61-.33c-.97-.12-1.58-1.12-1.24-2.03,1.91-5.12,7.57-19.66,11.72-23.81,5.06-5.06,15.19-7.01,21.95-7.44,6.18-.4,69.38-.07,79.98,0,.84,0,1.5.68,1.5,1.52Z"/>
  <path class="cls-3" d="M161.47,41.61v17.87h-27.18s-5.06,46.98-3.65,58.8,5.63,15.76,12.66,16.32,13.79-4.78,13.79-15.19l4.38-.28s.96,19.13-11.14,28.42-25.61,5.35-32.92-2.81-3.38-34.33-2.81-40.24,3.94-46.43,3.94-46.43l-25.61.28s-2.81,55.71-7.88,75.41-16.32,20.82-23.07,17.16-8.44-12.38-3.66-18.85,15.76-20.82,19.42-37.14,4.22-36.58,4.22-36.58c0,0-21.21-1.69-26.36,8.72s-5.43,8.16-5.43,8.16l-4.5-.56s7.32-20.54,12.38-25.61,15.19-7.01,21.95-7.44,81.48,0,81.48,0Z"/>
  <g>
    <path class="cls-2" d="M45.25,74.49c-.09.38.11.22.47-.76l.07-.77-.54,1.54Z"/>
    <path class="cls-2" d="M48.18,68.04c.35-1.19.73-2.58.23-1.92-.27,1.22-.46,1.46-.7,2.78-.36.99-.73,1.69-.74,1.49-.08.37-.63,1.51-.7,2.09.65-1.22,1.27-2.84,1.8-4.57.19-.34.1.03.11.13Z"/>
    <path class="cls-2" d="M138.45,40.81l-.66-.03c.18.02.41.03.66.03Z"/>
    <path class="cls-2" d="M140.82,59.07c.49-.03.69-.06.71-.08-.45.03-.82.07-.71.08Z"/>
    <path class="cls-2" d="M133.08,63.93c.02-.23.04-.43.06-.64-.04.24-.07.49-.06.64Z"/>
    <path class="cls-2" d="M138.45,40.81l1.7.08c.12-.07-.87-.06-1.7-.08Z"/>
    <path class="cls-2" d="M53.99,55.05c-.19.31-.32.58-.44.82.15-.26.29-.5.44-.76,0-.02,0-.04,0-.07Z"/>
    <path class="cls-2" d="M110.38,41.14h-.52c-.15.04-.29.08-.43.11l.94-.11Z"/>
    <path class="cls-2" d="M88.86,42.09c.49-.02.64-.22.83-.32-.27.09-.63.16-1.05.2,0,.04.06.07.23.12Z"/>
    <path class="cls-2" d="M57.42,51.55l-.36.48c.09-.13.25-.34.36-.48Z"/>
    <path class="cls-2" d="M125.79,40.99s.11.05.2.07c0-.02-.08-.05-.2-.07Z"/>
    <path class="cls-2" d="M62.74,61.15s-.02-.02-.02-.03c-.1.08-.12.11.02.03Z"/>
    <path class="cls-2" d="M45.22,74.69l.33.09s.09-.05.1-.08h-.43Z"/>
    <path class="cls-2" d="M131.34,83.76s0-.05.01-.09c.02-.52,0-.23-.01.09Z"/>
    <path class="cls-2" d="M113.87,114.46c-.31,2.05.02-3.37-.38-.28.09-.28.1,2.84.38.28Z"/>
    <path class="cls-2" d="M54.31,54.59c.16-.25.33-.5.49-.75-.23.34-.38.57-.49.75Z"/>
    <path class="cls-2" d="M113.49,114.18h0l-.04.32c.02-.13.03-.21.04-.32Z"/>
    <path class="cls-2" d="M133.35,129.36c-.03-.1-.11-.27-.21-.45,0,.02.03.13.21.45Z"/>
    <path class="cls-2" d="M130.84,95.46l-.09.84c.04-.33.06-.6.09-.84Z"/>
    <path class="cls-2" d="M149.55,135.05c.44-.19.62-.2,1.17-.57-.06.03-.11.05-.18.08-.19.15-.47.3-.99.49Z"/>
    <path class="cls-2" d="M158.18,119.75s-.02.12-.03.18c0,.12.02.25.03.37v-.56Z"/>
    <path class="cls-2" d="M77.16,93.81c.15-.38.26-.61.35-.79-.19.25.34-2.4-.35.79Z"/>
    <path class="cls-2" d="M54.08,55.1c.02-.12.08-.26.23-.51-.11.18-.22.36-.32.53,0,.06.01.08.09-.02Z"/>
    <path class="cls-2" d="M149.59,133.42c.38-.23.79-.43,1.16-.69.35-.28.75-.51,1.08-.83-.58.5-1.39,1.05-2.24,1.52Z"/>
    <path class="cls-2" d="M89.97,101.72l-.03.67c.02-.26.04-.5.03-.67Z"/>
    <path class="cls-2" d="M156.06,125.02c.22-.45.37-.96.5-1.49,0-.12.03-.25.02-.33-.16.61-.29,1.23-.52,1.82Z"/>
    <path class="cls-2" d="M77.52,93.02s0,0,0,0c0,0,0,0,0,0Z"/>
    <path class="cls-2" d="M79.99,73.97c-.26,2.77.12,1.32.21,1.93-.31,3.31-.36,1.51-.61,2.62-.15,2.07-.19,3.67-.41,5.2-.06.11-.11.4-.11.05-.12,2.2-1.09,6.41-1.41,8.95-.06.18-.1.27-.13.31.21-.38.34-.41.41-.31-.24,1.23-.4,2.29-.66,2.71.19-.74.14-.82.18-1.18l-.25,1.29c-.51,1.09.36-1.75.19-1.79-.26,1.25-.55,2.6-.82,3.88-.31,1.27-.64,2.46-.95,3.39-.33.32,1.22-4.4.29-1.96.33-.95.61-1.92.88-2.89-.91,2.15.47-1.77-.41.19-.49,1.92-.85,2.97-1.11,4.04-.27,1.08-.6,2.13-1.28,3.98-.17.88.27-.22.1.67-1.81,5.34-2.1,3.92-3.55,7.78-.3,1.04-.26,1.53-1.79,4.05l.25-1.01c-.46.84-.73,1.39-.92,1.8-.21.4-.32.65-.44.91-.24.52-.5,1.06-1.63,2.72.29-.66,1.51-2.61,1.18-2.13-1.55,2.09-.8,1.67-1.97,3.3l-.42.21c-2.18,3.42-5.31,6.78-7.6,10.86.07-.26.41-.99-.2-.07-1.42,2.6-2.52,5.71-2.43,8.97.05,1.62.44,3.26,1.16,4.68.72,1.43,1.67,2.67,2.74,3.7.6.46,1.23.88,1.89,1.24.44.28.77.59.27.32,1.96,1.21.16-.03,1.16.43,1.17.55,1.53.79.74.53.95.36,2.16.7,3.51.77,1.36.09,2.83-.14,4.19-.6,2.75-.95,5.01-2.75,6.59-4.07l-.56.58c1.23-1.05,1.78-1.78,2.3-2.49.51-.72,1.01-1.38,1.95-2.53-.1.16-.2.32-.31.48,2.14-2.76,3.63-6.14,4.69-9.38,1.06-3.25,1.77-6.37,2.4-8.91-.04-.51.29-2.17.54-3.78.26-1.6.45-3.14.28-3.38.63-3.85.6-2.73,1.21-8.18.14-1.46-.07-2.19.03-4l.21-.03-.03-2.46.34-1.28.07-1.69c-.06.67-.2,1.42-.25,1.32.05-1.32.21-2.93.36-4.21.16-1.28.31-2.24.37-2.27l.29-6.25c.07.14.02,1.19.01,2.02.04-3.34.26-.59.3-3.65-.08.41-.1-.23-.14-.3.24-1.51.5-4.97.64-7.54l.1.5c.38-4.62.66-9.76,1.05-14.95-.2,1.86-.42,1.41-.33-.11l.26-.59c-.06-.99-.2,1.58-.21-.45.17-1.94.34-1.29.33-.17l.1-2.36c.07-.13.07.42.14.57-.03-.46.09-1.39.2-2.39.05-.5.11-1.02.16-1.5,0-.11.02-.22.02-.33v-.03s-.03-.06-.04-.08c0-.01,0-.02,0-.03.02.02.04.04.05.06,4.97-.13,7.22-.19,11.27-.29.08-.19,1.74-.18,3-.35,1.47.01,3.02.02,4.64.03,1.34,0,2.74,0,4.2,0,0,.05,0,.11-.01.16,0,.08.02.1,0,.38,0,.2,0,.35,0,.46,0,.22.02.27.04.27.04.01.1-.15.11.44-.18.18-.45,3.92-.43,1.97-.31,4.5-.4,5.74-.69,11.43.12-.61.2-1.3.23-.94-.05,1.03-.25,2.34-.32,2.19v-.27c-.22,6.4-1.6,14.69-1.63,19.79v-.29s-.21,5.28-.21,5.28c-.21,2.42-.02-1.46-.26.32-.14,5.7-.72,8.97-.88,13.67-.37,1.8-.6,5.04-.56,8.46.01,3.43.39,7.01.72,9.51l.06-.31c.35,1.25.24,1.55.43,2.49.06-.16-.21-1.4.03-.63,1.32,5.3,3.82,10.66,8.11,14.62,1.08.97,2.25,1.85,3.51,2.59,1.28.71,2.62,1.34,4.02,1.75,2.8.86,5.76,1.12,8.62.81,2.09-.25,2.63-.61,3.31-.87.66-.33,1.48-.56,3.94-1.43-.41.29-.86.5-1.3.75,3.92-1.55,7.55-4.07,10.36-7.27,2.84-3.18,4.84-7,6.07-10.87-.11.47-.06.51-.34,1.25.39-.77.91-2.28,1.22-3.63.17-.67.29-1.29.35-1.76.07-.46.1-.76.07-.77.25-1.24.17-.26.37-1.02.43-1.69.34-4.31.53-5.2.03-.15.04.49.02.8.01-.42.03-1.25.06-2.07.01-.21,0-.41,0-.61,0-.26,0-.51,0-.74-.01-.63-.02-1.16-.03-1.5-.51,0-.62.03-.2.09-.99-.03-1.96-.06-2.9-.09-.59-.01-1.18-.02-1.76-.03h-.23c-.08,0-.17-.02-.13.07l.02.41c.02.27.03.54.05.81.02.27.03.53.05.8.01.25,0,.34,0,.51-.01.31-.02.62-.03.92-.09.6-.13,1.19-.29,1.74-.04.74-.36,1.94-.8,2.94-.41,1.01-.88,1.86-.89,2.13-.08-.16-.72.91-1.69,2.03-.94,1.14-2.27,2.25-3.03,2.71.23-.19-.11-.01-.44.15-.34.15-.68.24-.4.05-1.78.87-3.62.99-3.25,1.14-1.85-.03-3.67-.33-5.24-.95-1.55-.62-2.81-1.5-3.45-2.38-2.33-1.94-4.04-4.48-5.03-7.18-1.01-2.73-1.45-5.59-1.58-8.43.16.1.21,1.66.41,3.15.19,1.49.53,2.89.66,2.73-.63-2.56-.86-4.67-.98-6.78-.11-2.12-.06-4.24.17-6.93.14-1.39.07.8.1,1.27.26-5.43.81-10.51,1.01-15.35.03.02.02.54,0,1.03.06-.95.21-2.21.07-2.12l-.03.93c-.31,1.51-.13-3.82-.22-4,.27,1.65.46-4.77.76-2.16.02-.63.02-1.42-.08-1.28.1-.93.17-1.22.2-.27.18-3.42-.05-2.22.18-5.31.06.02.04.64.1.97,0-1.58-.02-3.16.23-5.77.03.16.1-.14.04.64.32-4.49.24-7.68.73-12.6.18,1.48.22-1.67.49-1.91l.05-1.01v-.45s.25-.04.25-.04l-.33-.05-.06.18.02-.22c.92-.09,1.79-.18,2.63-.26.98-.09,1.93-.17,2.87-.18l-1.72.2,4.35-.26-2.47.02c2.34-.24-.27-.31,2.83-.37-.63.05,2.33-.08,3.54.04h0c1.15-.1,2.33-.21,4.05-.16.45.08-.36.28-.07.33,1.13-.22,5.44-.06,6.88-.23-.48.04-.51.17-.35.2l.96-.15c1.08.08,1.23.11,1.05.21,3.24.13-1.02-.35,2.83-.08-.31,0-.16.03-.79.03.56.03,1.11.06,1.66.08l.47.02h.24s.12.01.12.01h.06s-.01-.06-.01-.06l-.17-.92c-.18-.98-.36-1.95-.53-2.91-.32-1.8-.59-3.56-.77-5.33.11-1.07.46,3.06.51,1.85-.28-1.9-.55-3.85-.79-5.82-.11-.98-.22-1.97-.32-2.95-.04-.49-.09-.98-.13-1.47-.04-.6-.09-1.19-.13-1.78-.75,0-1.49-.01-2.22-.02-.63-.01-1.25-.03-1.86-.04l.92.04c-.69.34-3.69-.23-6.2-.1.61-.02.81-.18.64-.15-3.39-.11-6.94-.01-12.09.05l.64-.08c-2-.1-5.27-.09-7.43-.14-.64.09-1.88.07-1.13.2-6.67-.54-12.71.29-18.63-.03.71-.01,1.68-.11,1.12-.1l-5.04.18c.4.14.66.08,1.72.18-.64.1-2.05.2-3.3.24,2.26-.16-.03-.25-1.01-.3.17.04-.17.1-.08.15-2.64-.19-.43.31-4.03.25l.19-.09c-1.34.09-2.58.23-4.03.28-.61-.15,1.43-.14,1.51-.29-2.04.09-4,.51-5.85.42.86-.07,2.1-.17,2.97-.23-2.01-.11-2.25-.06-3.74-.01h.15s-3.45.09-3.45.09h.88c-2.52.6-5.18.41-8.58.96,3.31-.55.54-.21.78-.43-.88.01-2.21.05-1.84-.03-1.61.29-2.71.07-4.98.53-.11-.06-1.74.18-1.39-.02-2.11.31.51.05.34.15-1.61.29-3.52.49-5.6.89-2.07.4-4.33,1.03-6.41,2.23-1.81.98-2.75,1.77-3.62,2.56-.86.8-1.65,1.61-2.84,3.04-.91.89.5-.94.52-.93-1.47,1.44-2.4,2.7-3.41,4.34.17-.36-.09-.05-.48.4-.81,1.32-.37.99-1.48,2.7.11-.34.24-.79.56-1.46-.9,1.6-1.67,3.23-2.47,4.94-.32.4.36-1.1.62-1.72-1,1.89-2.32,5.01-2.4,5.68l.6-1.22c-.3.71-.3.3-.1-.23.62-1.72,1.18-2.35,1.28-2.41l-.55,1.23c.89-1.1,2.38-4.83,3.87-7.1l-.36,1.1c.41-.83.85-1.64,1.31-2.45.4-.44.75-.68.03.43,1.21-1.5.9-1.46,2.05-2.66.13-.12.09-.05,0,.08.38-.5.77-.99,1.18-1.46-.21.31.34-.1-.45.72,2.33-2.39,3.9-3.76,5.09-4.24l-.23.15c1.99-1.19,2.12-1.2,2.05-1.27-.05-.04-.28-.08,1.32-.85.8-.13,1.6-.22,2.4-.28l.39-.32c.47-.12,1.4-.33,1.25-.21,1.72-.52-.32-.02.67-.37,2.3-.35,6.35-1.05,6.91-.76.82-.24-2.23.1.24-.25.74.27,2.86-.3,5-.31-.64.23-2.66.29-.52.29,1.26-.41,4.14-.24,5.93-.41.07-.26,3.89-.34,6.9-.58-.19.09,5.68-.13,8.48-.13l-.08.04c.53-.27,3.43-.3,5.54-.41-.08.15-.46.22-1.6.31l1.98-.06c.47-.09,1.08-.14,2.37-.2l-.49.19c2.64-.07,5.31-.31,8.7-.23.19-.17-2.7-.45.88-.59.13.09.27.25-.67.29.31-.01,1.1-.08,1.72-.05l-1.43.16c1.55.06.81-.13,2.04-.13-.02.13.92.09.74.19-.32.01-1.08-.05-1.55,0,1.39.02,3.08.08,3.63.18-.12-.07,0-.18,1.02-.19,2.64-.01.9.16,2.44.22.64-.09,2.32,0,2.37-.19.77,0,.91.1,1.21.15,1.37-.09,6.38.01,4.84-.21l-.35-.02c.07,0,.14,0,.22,0h-.01.01c4.48-.17,9.29.2,13.73.18v.07c2.64-.04,5.89.04,7.79-.07.37,0,.91.04,1.12.09.24.04.33.09.19.13.11,0,.21,0,.26,0,.07.71.11,1.15.17,1.69.05.65.1,1.43.17,2.78-.28-2.03-.05.71-.25-2.08.15,2.64.1,3.25.6,6.04-.28-.94.02,2,.25,3.24l-.12-1.85c.19,1.4.36,2.62.53,3.86l-.32-.64c.13,1.35.33,2.62.57,3.83l.07.32.04.15.04.16.02.09s-.05,0-.07,0l-.32.02s-.46,0-.71,0c-2.28,0-4.39.03-6.44-.22-1.43.13,2.93.15,1.65.31-2.48-.08-5.07-.38-5.85-.38-3.41-.09-3.17.36-6.73.38.46.07.89.25-1.76.43-2.48.08-3.07-.18-1.5-.33.59-.04.88-.02.86,0,.8-.06,1.85-.14.87-.18l-.32.09c-1.24-.04-4.65.16-3.86,0-1.87.19-.79.17.6.14-.95.02-1.77.06-2.54.1-.96.07-1.86.13-2.81.2-.05.68-.11,1.38-.16,2.14-.05.56-.11,1.17-.17,1.83.08-.52.21-.99.17-.47-.46,4.78-.01,2.12-.22,5.37-.26,1.83-.24-.68-.38,2.59-.23,1.99-.24.41-.24-.39-.07,2.99-.52,5.55-.68,7.25l.05-1.57c-.03.94-.09,1.71-.15,2.49l.22-.88c-.1.92-.16,1.7-.22,1.68.03.96.32-.71.31,1.19-.17,1.22-.2,3.74-.44,4.15.36-3.85-.24.41-.03-2.86-.02.63-.08,1.4-.18,2.32-.03.14-.03-.13-.03-.39-.46,3.68.11,1.72-.19,5.54-.08-.49-.29.87-.31,1.5.12-1.54.25-.72.23.7-.28,2.45-.13,2.67-.24,3.96l.15-1.46c.08.51-.03,1.73-.12,3.45-.1.14.05-1.56-.03-.95.06,1.92-.54,4.28-.6,6.93-.17,1.22-.23.1-.36,1.18-.06,2.98-.42,3.2-.46,6.36.21-.9.16-1.06.23,1.16.01-1.73.09-3.45.18-5.17,0,1.11,0,2.21.02,3.32.08-1.56.11-3.29.21-4.21.01,1.58-.02,1.42.17.68-.39,2.1-.17,4.22-.36,6.68l-.39-.08c-.1,1.87,0,3.54.27,5.34.27,1.79.66,3.72,1.43,6.06-.16-.5-.3-1.01-.41-1.52.29.59.93,2.89,1.8,4.25-.18-.07.25.84.58,1.45.02-.06.51.7,1.14,1.45.31.37.67.73.96,1.02.31.27.57.46.69.49.24.28.5.54.76.8.26.27.53.52.82.75,1.62,1.2,2.77,1.57,3.85,1.87,1.11.23,2.2.46,4.11.45-.58.09-.43.15-.46.2-.03.05-.24.12-1.56.02,1.3.2,2.5.12,2.51.03.19.03.51-.04.9-.11.39-.07.85-.16,1.3-.33.46-.15.92-.31,1.32-.51.41-.18.78-.33,1.05-.47.44-.34.56-.48,1.69-1.36.14-.07.04.05.04.05-.01-.02.1-.1.23-.24.13-.14.3-.32.43-.46.27-.3.42-.49-.08-.12.8-.57,1.58-1.46,2.32-2.47.69-1.06,1.35-2.25,1.78-3.51.45-1.25.77-2.54.92-3.72.04-.3.08-.59.12-.87.02-.28.04-.56.06-.82.01-.13.02-.26.03-.39.01-.14.02-.25.02-.31,0-.16.02-.3.04-.41l-.02-.32c.02-.08.16-.02.24-.04.23,0,.47,0,.71,0,.55,0,1.09,0,1.62,0,0,.26.01.51.02.75,0,.38.01.75,0,1.12-.02.73-.03,1.41-.09,2.04-.03-.16-.06-.01-.01-.47-.18,1.67-.17,2.19-.15,2.77.02.58.03,1.23-.42,3.1-.61,1.87.3-2.01-.02-.84-.29.22-.45,1.35-.8,2.71-.3,1.37-.81,2.96-1.39,4.1l.19-.59c-.83,1.75-1.7,4.47-3.6,7.06,0,0,.06-.15-.04-.05-.56.94-1.45,2.26-2.63,3.49-1.15,1.24-2.54,2.43-3.83,3.28.72-.66,1.1-.87.53-.66-1.15.76.52.04-1.82,1.52-.82.4-2.67,1.15-2.98,1.07.78-.35,1.58-.69,2.33-1.12-.62.24-1.39.55-2.14.94-.78.31-1.53.71-2.2.86l.13-.15c-.47.15-.88.28-1.25.4-.37.1-.7.19-1.01.27-.6.18-1.1.29-1.61.39-.51.12-1.03.22-1.7.27-.66.09-1.47.09-2.53.07l.44.08c-2.36.11-1.95-.24-4.26-.52l-.61-.45c-.37-.08-.89-.2-1.46-.42-.29-.1-.61-.21-.94-.32-.32-.14-.65-.3-.99-.45-1.37-.62-2.76-1.54-3.82-2.44.67.43,1.63,1.15,2.74,1.73,1.09.6,2.29,1.1,3.23,1.38-.71-.24-1.87-.77-2.91-1.35-.51-.3-1-.59-1.39-.87-.4-.26-.71-.46-.88-.57.48.38,1.15.76,1.63,1.13-1.67-.82-3.68-2.38-5.51-4.84.37.06-.84-1.51-1.89-3.59-1.1-2.05-1.93-4.61-2.04-5.71-1.64-5.13-1.61-10.56-1.34-16.85-.5,2.23.08-1.85-.34-1.48.06-1.48.11-2.04.15-2.17l.57-4.47c.2-1.05-.02,1.41.08,1.29.28-3.24.27-1.35.54-3.48-.18.43-.12-1.14.07-2.99l-.38,2.59c.13-4.55.63-3.89.77-8.47l.02,1.45c.1-2.35.65-8.64.5-10.96.08-.41.23-.95.18.08.47-5.6.59-12.49,1.12-16.83l.07.43c.05-1.05-.05-1.83.15-3.13.04.07.07.43.11-.05,0-.56.04-2.79.2-4.17l.02,1.19c.17-1.72.27-3.2.33-4.55.06-1.6.12-3.07.18-4.55-.96.05-1.92.1-2.92.15-.76.03-1.54.07-2.39.11,0-.29-4.3-.31-6.46-.32l.07-.04c-2.66.03-4.98.12-7.22.22-1.12.05-2.22.11-3.33.16-.55.03-1.11.06-1.67.08-.76.03-1.53.06-2.32.09-.06,1.06-.12,2.2-.18,3.4-.59,3.63-1.06,12.37-1.67,18.24.12-.89.22.16.17,1.21-.16,1.37-.08,3.83-.33,3.59l.04-.49c-.34,1.02-.48,3.86-.65,6.07l.32.39c-.94,5.75-.94,15.18-1.64,18.3-.02,1.4-.16,3.13-.19,4.52l-.18-.09c-.4,3.85-.59,5.77-1.24,10.48v-.98c-.4,2.65.02,3.43-.45,5.88l-.43.67c-1,4.58-2.54,9.05-4.59,13.1,0-.08,0-.24.35-.9-.5.96-1.62,2.7-2.73,4.01-1.08,1.34-2.02,2.31-1.6,2.17-.11-.07-.93.79-2.04,1.76-1.1.99-2.56,2.01-3.66,2.55l.27-.32c-.87.54-1.35.78-1.94,1-.59.21-1.31.46-2.75.48-.68-.09-.58-.16.31-.11-1.12-.06-1.55-.14-2.05-.18-.49-.09-1.08-.14-2.33-.77.34.1.66.22,1,.29-1.09-.42-1.55-.7-1.92-.87-.36-.2-.64-.28-1.2-.62-.63-.4-1.49-1.16-2.09-1.94-.62-.77-.99-1.52-1.02-1.7-.23-.21-1.05-1.27-1.34-2.64.01-.19.18.28.27.51-.52-1.87-.51-3.35-.42-4.65.12-1.31.39-2.47.96-3.71.08-.03.17-.18.27-.39-1.26,2.91-1.22,5.49-1.24,5.23.14,0,.43-2.44.46-.48,0-.97.15-2.32.55-3.69.38-1.37,1.03-2.73,1.71-3.77.08-.09.15-.19.22-.25l-.12.23c.31-.48.58-.92.83-1.34.48-.64.79-1.05,1.25-1.66.28-.16,1.88-2.3,2.71-3.33-.21-.03.87-1.36-.24-.19.14-.16-.14.21-.67.89-.12.16-.25.34-.33.45.01-.02.03-.05.04-.08-.53.68-1.22,1.55-1.96,2.56.53-.88,1.13-1.77,2.11-2.84.33-.6.69-1.25.9-1.62,1.32-1.23,3.4-4.03,3.82-4.33,2.13-3.42,4.7-8.25,5.37-10.72.45-1.05.64-1.15.84-1.53-.2.63-.56,1.33-.65,1.68.89-2.1,2.53-6.27,2.44-6.88,1.04-2.68-.31,1.6.94-2.14l-.1.53c.71-1.81,1.18-3.51,1.63-5.13.37-1.64.72-3.21,1-4.82.55-3.22,1.09-6.52,1.92-10.74-.12.58-.17.88-.23.99.84-4.82,1.29-9.85,1.57-14.87.14-2.51.26-5.01.35-7.49.03-.65.05-1.29.08-1.93l.03-.62v-.31c.04-.07-.02-.07-.07-.08l-.15-.02-1.19-.17c-1.21-.19-2.42-.37-3.61-.56-2.75-.32-3.08-.15-4.76,0-.2-.07-.41-.11-.61-.17-.96.13-1.92.32-2.85.58-1.99.47-3.71.92-5.5,1.63-.44.2-.89.39-1.35.6-.45.23-.9.49-1.37.76-.98.58-1.83,1.49-2.61,2.52l.55-.42c-1.31,1.35-3.46,4.75-3.4,4.41-.08.17-.23.58-.67,1.15h-.12c-.77,1.29-1.51,2.62-2.23,3.95-.86,1.4-.93,1.35-1.04,1.35-.05,0-.11.02-.28.24-.08.11-.2.27-.34.51-.09.15-.22.35-.38.61-.08,0-.23-.02-.4-.03-.92-.04-2.24-.15-3.23-.3-1-.15-1.68-.29-1.35-.15.72.23,1.86.53,1.9.64-.57-.09-1.14-.21-1.7-.35-.19.11-.64.14-.52.32.12.16.78.59,2.95,1.06.45.04.91.07,1.36.09h.71s1.03.02,1.03.02l.25-.49c.32-.48.47-.64.68-.91l-.85,1.54-1.01-.04-.69-.05c.11.02.23.04.33.06l.16.02.25.02c.34.03.68.05.99.06.17-.31.32-.6.48-.89l.15-.3.11-.24c.14-.31.28-.62.43-.93.19-.17.44-.5.77-.99l1.25-2.64c.29-.23-.48,1.23.6-.39.61-1.23-.93.96.2-.99.88-1.12.75-.7,1.58-2.15.2-.14.03.17-.3.73.73-1.29,2.22-3.18,2.58-3.85.54-.47,1.34-1.45,2.1-1.95.84-.53,1.59-.93,1.59-.77.18-.15.72-.47,1.36-.86.66-.34,1.43-.74,2.06-.94-1.08.57.08.12,1.48-.26,1.4-.4,3.07-.57,2.78-.35.85-.3,2.47-.44,4.27-.39,1.8.04,3.78.32,5.42.45-.19,0-.55,0-.83-.05.45.07.83.13,1.15.19.08.01.16.03.23.04.09.02.15.03.15.03.04.01.08.03.12.04.05.04.17.03.13.1-.02.05-.03.1-.05.15.25.18.23,3.09.3,4.63-.36,2.24-.24-1.38-.51-.68.22-.1.01,3.92.23,3.16-.25,1.71-.17,1.48-.44,2.35.3.32-.05,1.6.04,3.04-.39,2.47-.36.61-.51,3.34-.22,1.28-.11-1.15-.11-1.15ZM57.25,133.57h0c.28-.5.54-.92.7-1.18-.15.24-.36.58-.7,1.18ZM55.18,138.79c.16-.67.39-1.5.71-2.34.13-.16.11.06-.08.59.06-.31-.41.93-.64,1.75ZM61.8,129.28c-.51.7-.71.9-.81.97.24-.33.53-.71.91-1.21.01-.02.03-.07.05-.09-.02.09-.06.18-.14.33Z"/>
    <path class="cls-2" d="M62.57,127.91c.07-.1.12-.16.21-.29-.12.13-.24.25-.35.38-.05.09-.1.19-.15.28.1-.12.2-.25.29-.37Z"/>
    <path class="cls-2" d="M137.67,40.77h.12c-.1,0-.18-.01-.24-.02.08.01.08.01.13.02Z"/>
    <polygon class="cls-2" points="89.6 107.82 89.55 107.83 89.56 108.31 89.6 107.82"/>
    <path class="cls-2" d="M107.44,40.37c-.06-.01-.17-.03-.4-.04.02.01.19.02.4.04Z"/>
    <path class="cls-2" d="M94.38,40.84l-1.85.04c.8-.02,1.38-.03,1.85-.04Z"/>
    <path class="cls-2" d="M84.35,41.37c-.12.04-.16.07-.19.1h.02s.17-.1.17-.1Z"/>
    <path class="cls-2" d="M132.14,94.86c0,.13-.01.27-.02.39-.03.91,0,.29.02-.39Z"/>
    <path class="cls-2" d="M146.55,59.57c-.5.04-1,.08-1.52.13.84,0,1.5-.02,1.52-.13Z"/>
    <path class="cls-2" d="M149.32,133.54s0,0,0,0c.09-.04.18-.07.27-.12-.09.05-.18.08-.27.12Z"/>
    <path class="cls-2" d="M142.83,59.77c.84,0,1.55-.03,2.2-.07-.69.01-1.51.02-2.2.07Z"/>
    <path class="cls-2" d="M49.7,62.99l-.21.44s.01.03,0,.07l.2-.51Z"/>
    <path class="cls-2" d="M49.5,63.5l-.2.5c.1-.23.18-.43.2-.5Z"/>
    <path class="cls-2" d="M48.9,65.06l.4-1.06c-.16.36-.35.8-.4,1.06Z"/>
    <path class="cls-2" d="M56.57,51.5l.04-.16c-.04.07-.06.13-.04.16Z"/>
    <path class="cls-2" d="M59.35,48.47c-.74.65-1.87,1.64-2.7,2.73l-.04.13c.16-.28.68-.84,1.24-1.4.57-.56,1.19-1.11,1.5-1.46Z"/>
    <path class="cls-2" d="M75.14,43.03c-1.11.13-2.23.28-3.33.48.59-.04,1.36-.08-.13.21,4.2-.5-.9-.06,3.46-.69Z"/>
    <path class="cls-2" d="M85.58,42.21c-1.81.16.03.1-.06.15,1.14-.14,1.42-.18.06-.15Z"/>
    <path class="cls-2" d="M160.58,41.47c-.06,0-.11,0-.17.02.07.74.06-.02.17-.02Z"/>
    <polygon class="cls-2" points="163 55.51 162.9 54.15 162.65 53.53 163 55.51"/>
    <polygon class="cls-2" points="158.62 58.54 159.24 58.54 156.89 58.54 158.62 58.54"/>
    <path class="cls-2" d="M158.23,122.65l-.26.41c-.04.49-.06.78,0,.77.06-.02.2-.36.26-1.17Z"/>
    <path class="cls-2" d="M134.16,151.8c-.29-.04-.81-.11-1.37-.2-.56-.06-1.16-.13-1.62-.18.59.14,1.18.21,1.71.28.52.09.98.11,1.29.1Z"/>
    <polygon class="cls-2" points="89.02 93.16 89.03 92.05 88.93 94.13 89.02 93.16"/>
  </g>
  <g>
    <path class="cls-2" d="M63.79,45.77s-.04-.09-.08-.05l.02.11.05-.06Z"/>
    <path class="cls-2" d="M63.39,45.77c-.02.08-.04.19.05.26,0-.12.03-.09.02-.23.04-.04.09-.01.11.03,0-.03.08-.02.07-.09-.1-.04-.17,0-.21.1-.03-.01-.03-.05-.03-.06Z"/>
    <path class="cls-2" d="M59.34,48.65h.03s-.02,0-.03,0Z"/>
    <path class="cls-2" d="M57.16,50.84s.01-.03,0-.04c0,.02-.02.04,0,.04Z"/>
    <path class="cls-2" d="M56.73,51.17s.02-.01.03-.02c-.02,0-.03,0-.03.02Z"/>
    <path class="cls-2" d="M59.34,48.65l-.08.03s.05,0,.08-.03Z"/>
    <path class="cls-2" d="M62.95,46.35s.02-.03.02-.05l-.03.03v.02Z"/>
    <path class="cls-2" d="M60.3,47.67l.02-.02s0-.03-.01-.05v.06Z"/>
    <path class="cls-2" d="M61.1,46.99s.03.09.05.13c-.01-.04-.01-.06,0-.08-.01-.01-.03-.03-.05-.05Z"/>
    <path class="cls-2" d="M62.55,46.16l.02-.03-.02.03Z"/>
    <path class="cls-2" d="M59.72,48.15s-.02-.02-.03-.02c0,0,.02.01.03.02Z"/>
    <path class="cls-2" d="M46.36,73.63h-.02s.01,0,.02,0Z"/>
    <path class="cls-2" d="M45.64,74.67s-.01.02-.01,0h-.05s.04,0,.06,0Z"/>
    <path class="cls-2" d="M56.02,51.84h0s0-.02,0,0Z"/>
    <path class="cls-2" d="M51.27,59.35c.12-.05.02.19.17.1-.04,0-.06-.19-.17-.1Z"/>
    <path class="cls-2" d="M62.92,46.35l-.03.02s.03-.01.03-.02Z"/>
    <polygon class="cls-2" points="51.44 59.46 51.44 59.46 51.45 59.45 51.44 59.46"/>
    <path class="cls-2" d="M54.73,53.67s.03,0,.05,0c0,0-.02,0-.05,0Z"/>
    <path class="cls-2" d="M55.82,52.41l-.03.02s.03-.02.03-.02Z"/>
    <path class="cls-2" d="M54.34,54.45s-.03.01-.04.05c0,0,.01,0,.01,0,0-.02,0-.03.03-.04Z"/>
    <polygon class="cls-2" points="53.85 55.2 53.87 55.2 53.88 55.17 53.85 55.2"/>
    <path class="cls-2" d="M47.12,71.05s-.06.01-.09.01c.07,0,.05.14.09-.01Z"/>
    <path class="cls-2" d="M62.92,46.31s0,.04,0,.05l.02-.02s-.01-.02-.02-.03Z"/>
    <path class="cls-2" d="M54.93,54.9l-.09.11s.06-.07.09-.11Z"/>
    <path class="cls-2" d="M49.37,65.1v.03s0-.02,0-.03Z"/>
    <path class="cls-2" d="M54.62,55.36s-.07.01-.1.03c0,0,0,.02.01.03l.09-.06Z"/>
    <path class="cls-2" d="M47.02,71.06h0s0,0,0,0Z"/>
    <path class="cls-2" d="M46.95,72.01c.04-.13-.1-.1-.15-.15.02-.16.11-.04.19-.08,0-.1-.08-.21-.06-.28.02,0,.03-.01.05.01-.06-.13.09-.3.02-.46.01,0,.02,0,.03,0-.06,0-.12-.02-.17-.04.02-.06-.04-.13.05-.13-.01.03.02.05.03.07v-.07c.11-.02,0,.09.08.12,0-.13-.04-.3.02-.37.11.02-.03.22.1.13l-.09.12c.2-.05-.04.08.17.04.09-.17.01-.22.11-.39-.05-.06-.09-.02-.14-.08-.02-.29.34-.11.26-.35-.05-.07-.18-.14-.06-.25l.1.09c.07-.17-.14-.16,0-.32.04.05,0,.15.01.13.14-.09-.04-.11,0-.2l.11.02c.05-.19.05-.43.1-.64.03.02.05.07.1.03.04-.28.22-.55.37-.77l-.05-.13s.06-.03.07,0c.07-.08-.06-.03-.07-.09.01-.06.08-.05.09,0-.01-.2.02-.55.19-.69v.05c.11-.13-.11-.23.03-.33v.03c.17-.29.22-.66.45-.83-.11-.1.18-.28,0-.37.16-.14.17-.07.33-.29.04-.06-.07-.14-.06-.23l.1.04-.05-.15h.14s0-.09,0-.09c-.02.03-.07.05-.09.03,0-.14.19-.26.24-.24l.04-.31s.03.07.04.12c-.03-.19.11.02.08-.16-.03,0-.05-.03-.07-.05.09-.04.15-.19.18-.32l.05.05c.11-.2.16-.44.26-.67-.07.07-.17,0-.15-.07l.11.02c-.04-.07-.07.05-.1-.07.05-.08.14,0,.15.06v-.12s.05.04.08.06c-.04-.07.18-.13.1-.24h.03c.11-.22.12-.34.2-.52-.08-.04-.03-.11-.07-.19.09-.12.23-.24.3-.41.01-.13-.06-.07-.08-.14.08.03.15-.14.17-.03.08-.2.11-.26.17-.53-.04.01-.07.03-.09,0,0-.05.08-.09.12-.06v.02c.03-.33.54-.52.5-.82v.02s.04-.27.04-.27c.07-.1.02.09.11.04,0-.31.22-.37.24-.62.3-.04.28-.55.53-.68l-.06-.02c-.02-.08.06-.05.1-.08-.04-.02-.08.03-.09-.02.19-.49.6-.88.91-1.31.11-.16-.21-.25.04-.39l.06.12c.08-.4.42-.68.52-1.06,0,.03.04.05.02.08.11-.03.16-.25.11-.28.04-.05.06.02.1,0,.08-.04.02-.23.11-.22.01,0,0,.03,0,.05,0-.07.14-.2.04-.21.12-.1.12-.25.22-.32-.05-.12.18-.18.07-.28.12.09.24-.14.23-.25.02.05.08-.04.12.03.06-.09.09-.18.01-.21.25-.06.1-.4.35-.35.11-.3.23-.56.36-.8.12.1-.17.26-.03.34.1-.25.09-.45.27-.63.06-.04.03.07.04.1.11-.24.31-.4.39-.63.01,0,0,.04,0,.06.02-.04.08-.07.03-.11v.05c-.14,0-.06-.27-.1-.31.11.18.18-.15.3.1,0-.03,0-.08-.03-.1.04-.03.07-.02.08.05.07-.15-.02-.15.07-.27.03.02.02.05.04.09,0-.1,0-.2.1-.28.01.02.04.02.02.05.13-.17.1-.4.3-.54.06.15.09-.03.19.04l.05-.12h-.08c.07-.08.07-.22.16-.26v.1s.1-.17.1-.17l-.11.06c.02-.13-.13-.09,0-.18-.01.03.08-.08.17-.08h0c0-.07.01-.14.09-.18.04.01.09.1.12.11-.04-.11.15-.21.12-.34,0,.03.05.08.07.08l-.03-.09c.06-.02.07-.02.1.02.12-.1-.15-.07.03-.16,0,.02,0,.02,0,.05.15-.11.2-.3.35-.4.12.05-.08.13.04.16.15-.19.25-.47.43-.62l-.04.02c-.1-.15.19-.06.21-.21-.01.03.04.1.03.08.14-.09.21-.26.35-.48v.05c.11-.04.21-.16.3-.21,0-.05.04-.09-.03-.11.4-.03.36-.51.72-.54-.03.02-.03.08-.01.07l.16-.19c-.06-.05-.05-.02-.13-.03,0-.05.02-.12.07-.16-.05.11.08.09.14.1-.02-.01-.03-.04-.04-.06.18.02-.08-.13.11-.17l.02.04c.04-.06.05-.14.11-.17.08.05-.03.08.02.14.07-.07.04-.25.17-.24-.02.05-.06.08-.08.13.14.02.13,0,.2-.04h0s.16-.06.16-.06h-.05c-.05-.25.17-.18.21-.4-.04.21.03.08.08.17.05,0,.12-.02.12.02.01-.11.14-.02.16-.19.02.02.07-.05.1.03.07-.08-.05-.03-.07-.07.06-.18.37-.11.47-.35.12-.16.09-.27.21-.42.08.01.02.13.02.13.11-.01.17-.06.22-.14,0,.03.03.04.07.06.06-.05-.02-.13.09-.14,0,.04.02.1,0,.15.06-.07.1-.17.16-.24.05.04,0,.1,0,.15.07-.08.2-.18.18-.27h-.07s.06.06.04.09c-.04.1-.12.04-.14.01l.04-.05c-.16-.13-.2.16-.32.22l-.03-.15-.05.17s-.1-.07-.06-.12c-.12,0-.04.09-.15.07-.01,0-.01-.01-.01-.02l-.05.08s-.07-.07,0-.09c-.18.03-.16.24-.27.18h0c-.16.15.04.08-.03.28l-.24-.14.04.1s-.06.03-.08,0c-.03.11.04.03.03.11-.14,0-.22.22-.34.1.01.09.12-.02.06.1-.13-.12-.09.11-.23.1-.03-.09.08-.11-.05-.11.04.16-.18.1-.23.17.07.1-.12.16-.21.28-.02-.04-.26.12-.39.18v-.02c.05.11-.08.18-.14.27-.04-.06-.05-.09-.03-.15l-.07.06s0,.08-.04.13l-.04-.08c-.1.09-.12.25-.29.31.05.07.25.09.16.25-.04-.03-.09-.08-.07-.13,0,.01-.01.06-.05.07v-.1c-.08.02.01.07-.04.11-.04-.05-.06,0-.09-.05,0-.01.06-.01.06-.05-.06.04-.15.06-.2.04.03.02.06.07.03.1-.09.09-.09-.03-.16,0,0,.05-.08.08-.02.15-.03.03-.06,0-.09-.01-.02.08-.22.22-.09.25h.02s0,0,0,0h0s0,0,0,0c-.09.22-.36.27-.49.45l-.02-.02c-.07.12-.19.22-.2.33-.03.03-.11.02-.12-.02-.05.09-.03.12-.17.19.03-.11-.06-.01.04-.1-.11.07-.17.06-.2.22-.03-.09-.14,0-.17.06l.1-.02c-.04.06-.08.1-.13.14l-.06-.1c-.28.1-.16.5-.45.5.01.1.14-.07.16.04-.09.08-.29.07-.32.1-.16.08.02.22-.13.32.04,0,.14.06.08.18-.09.08-.22,0-.2-.07.02-.02.03-.03.04-.02.01-.04.04-.09-.03-.08l.02.04c-.07.02-.17.15-.2.08-.03.09.02.07.08.03-.14.08-.16.18-.29.28.03,0,.08,0,.07.03-.19.15,0,.13-.1.26-.1.03-.09-.12-.15.04-.09.05-.09-.05-.09-.1-.03.16-.21.18-.27.24l.02-.08s-.04.08-.06.11l.09.02s-.06.06-.09.03c.01.07.12.05.12.17-.07.02-.08.17-.17.12.14-.13-.1-.05-.01-.19,0,.03-.03.06-.07.09-.01,0-.01-.02-.01-.03-.18.08.04.14-.08.28-.03-.06-.11-.03-.12,0,.05-.06.1.03.09.11-.11.07-.05.12-.1.17l.06-.04c.03.06-.01.1-.05.18-.04-.02.02-.08-.01-.07.03.14-.21.1-.23.25-.07.02-.09-.06-.15-.04-.03.16-.16.08-.2.24.09.01.08,0,.08.13l.1-.23v.2c.04-.06.05-.16.09-.18,0,.1,0,.08.07.09-.16.01-.07.2-.2.25l-.16-.12c-.18.09-.11.32-.28.48l.07-.04c.05.07-.08.12-.09.2-.05-.04-.1-.02-.15-.02.04.02-.1.14,0,.23l-.13.04c-.14.13.03.28-.09.42-.03-.09-.11-.04-.09-.17-.03.05-.07.09-.04.11-.05,0-.02.19-.1.2,0,.04.06.08.02.14-.02,0-.03-.02-.03-.02.03.02-.02.11.07.1-.28.04-.27.44-.51.48-.05.12-.12.27-.18.37-.01-.02-.03-.02,0-.03-.14.11.1.19-.05.31-.14.02,0-.11-.06-.09-.2-.09-.1.21-.27.25v-.03c-.11.04-.05.24-.14.37,0,0-.01-.02-.03-.02.04.15-.04.34-.09.49-.05-.08,0-.08-.09-.1-.02.06.13.05.08.18-.06.01-.15.08-.23.04l.06-.11c-.14,0-.08.14-.13.19l-.04-.03c-.09.18.02.25-.09.42h.04c.05.17-.11.05-.09.2l-.13-.04c-.01.08-.02.29-.07.42-.05-.11,0-.28-.01-.39-.04.06-.12.23-.08.29,0-.03,0-.08.03-.1.04.13.03.26-.05.39-.21-.15-.25.31-.47.31-.04.28-.29.44-.42.72.23,0-.04.08.15.16-.02.07-.04.09-.05.09l-.21.14c-.08.02,0-.08-.05-.1-.09.13-.11.02-.2.09.07.02.07.1,0,.16l.14-.07c0,.25-.24.09-.25.34l-.02-.09c-.02.12-.2.37-.1.55-.03,0-.09,0-.08-.05-.14.23-.12.62-.3.76l-.04-.04c0,.05.04.12-.03.16-.02-.01-.04-.04-.05-.02,0,.03.02.16-.04.21l-.02-.08c-.18.21-.05.43-.12.64-.13-.06-.27.1-.33.19h-.02c-.15.26-.11.52-.18.8-.22.1-.31.52-.51.75.04-.03.1.05.09.1-.05.05.02.21-.1.15v-.02c-.13,0-.15.13-.2.23l.15.09c-.35.16-.21.71-.48.77.01.08-.02.16,0,.24l-.09-.04c-.09.16-.14.25-.21.47l-.04-.07c-.06.12.19.26.15.37l-.14-.02c-.08.21-.29.38-.25.64-.02-.01-.05-.03-.04-.07-.04.1-.24.35-.05.39-.12-.04-.1.22-.09.35l-.08-.05c.07.14.1.15.08.3-.02.03-.08,0-.04-.03-.09.09.05.11-.05.23l-.04-.07c-.05.11-.02.11.03.2,0,.08-.1.2-.19.19.04.03.08.12.04.17-.03,0-.04-.03-.05-.05-.13.16,0,.31-.13.41-.03,0-.05,0-.06,0,.06-.15.11-.26.11-.25-.08-.03-.14.08-.21-.05.02.12.1.33.02.43,0,0-.02,0-.03,0v-.02s-.02.05-.02.08c-.03.03-.05.05-.06.09-.07-.01-.09.12-.11.18.09.03.05.1.15.05,0,0,0-.02,0-.06,0,0,0-.02,0-.03h0s.03-.08.05-.14c.03.06.05.13-.03.17.04.05.09.11.11.13-.15.04-.27.17-.36.17-.02.2-.12.44,0,.61,0,.06-.07.04-.1.05,0-.04,0-.07,0-.09,0,.12-.09.31.02.38-.1.11-.08-.11-.12.08l-.03-.04c-.31.29.1.68-.27.99.02-.02.03-.03.06-.03-.25.42-.2.96-.5,1.35-.07.12,0,.15.03.25h-.1s.07.16.07.16c.03.21-.33.26-.24.54h.07c-.04.07-.04.27-.11.24,0,.01.06.05.02.07h-.05s.03.22.03.22c-.08.16-.2-.08-.27.17,0,.05.02.12.05.19l.02.05c0,.06.04.13.05.14.02-.02.04-.03.04-.03-.05-.16.03-.16.07-.16,0,.04,0,.05.02.11.07-.04.15-.08.2-.11.02,0,.06-.1.12.1.03.02.06,0,.1-.04-.02-.05-.04-.1-.06-.15l.08-.03-.02.11c.08-.05.03-.1,0-.16.04,0,.07-.01.09-.04l-.11-.17c.06,0,.1.09.16,0-.05-.08-.15.03-.16-.09.09-.05.14-.01.1-.11.04,0,.06.02.07.06-.03-.08.03-.19-.04-.24.1-.05.04-.24.18-.19-.03-.03-.08-.15-.06-.22.14.16.08-.23.25-.15-.13-.13.02-.33-.01-.5,0,.01.03.04.02.05.04-.08.09-.09.14-.14-.12-.05-.11-.19-.16-.28.15-.07.13.11.25.11-.1-.03-.04-.21-.14-.2.1-.06.06-.06.17-.07-.15-.06,0-.08-.08-.18.11-.09.15.02.15-.12.07-.04.09.08.09.08ZM47.7,68.95h0s-.01.05-.02.06c0-.01,0-.03.02-.06ZM47.79,68.7s-.03.07-.04.11c-.03,0-.06-.02-.05-.05.02.02.05-.03.09-.06ZM46.99,69.01s.02-.05.04-.05c0,.02,0,.04-.01.07h0s-.03-.01-.04-.02Z"/>
    <path class="cls-2" d="M47.08,69.12s0,.01,0,.02l.03-.02-.02-.02v.02Z"/>
    <path class="cls-2" d="M59.38,48.63h0s.01,0,.02,0c0,0-.01,0-.01,0Z"/>
    <polygon class="cls-2" points="49.3 65.38 49.28 65.38 49.29 65.41 49.3 65.38"/>
    <path class="cls-2" d="M60.68,47.9s.02,0,.03,0c0,0-.02,0-.03,0Z"/>
    <path class="cls-2" d="M61.18,47.52l.09-.03s-.07.02-.09.03Z"/>
    <path class="cls-2" d="M61.58,47.26s-.01-.03-.02-.04h0l.02.04Z"/>
    <path class="cls-2" d="M56.34,52.76v.02s0,.02,0-.02Z"/>
    <path class="cls-2" d="M57.61,50.87s0,.06-.02.08c.03-.03.05-.05.02-.08Z"/>
    <polygon class="cls-2" points="54.94 54.89 54.94 54.88 54.93 54.9 54.94 54.89"/>
    <path class="cls-2" d="M57.53,51.03s.06-.05.07-.08c-.03.02-.06.04-.07.08Z"/>
    <path class="cls-2" d="M63.32,46.13h.02s0-.02,0-.02l-.02.02Z"/>
    <path class="cls-2" d="M63.33,46.11l.02-.02s-.02.01-.02.02Z"/>
    <path class="cls-2" d="M63.38,46.04l-.03.05s.04-.02.03-.05Z"/>
    <path class="cls-2" d="M62.76,46.43v.03s0-.02,0-.03Z"/>
    <path class="cls-2" d="M62.61,46.55s.13,0,.18-.06v-.03c0,.06-.17,0-.18.08Z"/>
    <path class="cls-2" d="M61.7,46.67l.15-.08s-.1-.03-.05-.08c-.23.04.08.04-.1.16Z"/>
    <path class="cls-2" d="M61.26,46.93c.06-.07-.03-.04-.04-.06-.02.06-.03.08.04.06Z"/>
    <path class="cls-2" d="M58.51,49.38l-.05-.07c-.04.06.02.02.05.07Z"/>
    <polygon class="cls-2" points="58.34 50.19 58.42 50.18 58.39 50.1 58.34 50.19"/>
    <polygon class="cls-2" points="57.61 50.08 57.62 50.05 57.57 50.16 57.61 50.08"/>
    <path class="cls-2" d="M53.87,55.02l.1.04s-.08-.12-.1-.04Z"/>
    <path class="cls-2" d="M52.55,57.35c-.06,0-.13.05-.11.11.04-.05.1-.08.11-.11Z"/>
    <polygon class="cls-2" points="48.8 64.41 48.79 64.34 48.78 64.45 48.8 64.41"/>
  </g>
</svg>