<?xml version="1.0" encoding="UTF-8"?>
<svg id="Layer_1" data-name="Layer 1" xmlns="http://www.w3.org/2000/svg" viewBox="0 0 213.73 196.96">
  <defs>
    <style>
      .cls-1 {
        fill: none;
      }

      .cls-2 {
        fill: #f0f0e2;
      }

      .cls-3 {
        fill: #424242;
      }

      .cls-4 {
        fill: #3b7fbf;
      }
    </style>
  </defs>
  <path class="cls-4" d="M177.87,105.6c-7.82,37.79-44.56,62.21-82.33,54.91l10.04-14.08h.01c26.94,1.64,51.7-16.72,57.32-43.93,4.46-21.56-4.31-42.77-20.77-55.22l9.25-12.15c20.99,15.9,32.17,42.97,26.48,70.47Z"/>
  <path class="cls-4" d="M106.87,20.88l-.89,1.66-7.12,13.38-.66,1.24h-.01c-21.12,4.17-38.74,20.58-43.38,42.99-5.32,25.71,8.2,50.94,31.12,61.4.05.02.11.05.16.07l-.61,1.73-4.24,11.96-.26.74c-.13-.06-.26-.11-.39-.17-29.88-13.04-47.59-45.61-40.73-78.82,6.75-32.64,35.07-55.31,67.01-56.18Z"/>
  <path class="cls-2" d="M114.86,21.63l43.06-4.99c.49-.05.81.5.53.91l-32.18,45.93c-.29.43.08.99.58.9l18-3.27c.5-.09.87.47.59.89l-25.99,39.05c-.27.41.05.95.54.9l16.68-1.58c.5-.05.82.52.52.92l-55.08,69.25c-.4.54-1.25.08-1.01-.55l22.98-52.2c.15-.41-.18-.84-.62-.78l-21.13,2.67c-.44.06-.78-.38-.61-.79l17.65-43.45c.16-.39-.14-.82-.56-.8l-11.28.52c-.44.02-.75-.44-.55-.84l27.42-52.37c.09-.18.27-.3.46-.32Z"/>
  <g>
    <path class="cls-3" d="M113.12,22.89c.06-.25-.12-.18-.41.44l-.03.53.44-.97Z"/>
    <path class="cls-3" d="M110.63,26.79c-.28.76-.54,1.68-.12,1.31.18-.81.35-.94.52-1.82.29-.62.62-1.03.63-.89.06-.24.54-.92.58-1.31-.56.71-1.09,1.71-1.51,2.83-.16.2-.1-.04-.11-.11Z"/>
    <path class="cls-3" d="M97.85,74.66l.02-.04h-.24c.06,0,.14,0,.24,0,0,0-.01.02-.02.04Z"/>
    <path class="cls-3" d="M81.85,112.51c.12-.29.15-.42.14-.45-.1.28-.18.5-.14.45Z"/>
    <path class="cls-3" d="M83.24,117.12c-.15.01-.28.02-.42.04.16,0,.32,0,.42-.04Z"/>
    <path class="cls-3" d="M97.85,74.66l-.38.74c.06.05.21-.37.38-.74Z"/>
    <path class="cls-3" d="M106.83,35.24c.1-.21.17-.39.23-.56-.08.17-.16.34-.24.51,0,.01.01.03.01.05Z"/>
    <path class="cls-3" d="M87.64,69.8l.16-.3c.02-.1.04-.2.05-.29l-.21.59Z"/>
    <path class="cls-3" d="M94.11,57.31c-.15.28-.04.46-.02.61.01-.19.09-.42.21-.67-.03-.02-.09,0-.18.07Z"/>
    <path class="cls-3" d="M104.7,37.69l.16-.36c-.04.09-.11.25-.16.36Z"/>
    <path class="cls-3" d="M90.17,75.19s.08.05.13.06c0-.02-.05-.04-.13-.06Z"/>
    <path class="cls-3" d="M129.04,22.1s0-.02,0-.03c-.08.03-.1.04,0,.03Z"/>
    <path class="cls-3" d="M112.72,22.63l.22-.03s.04-.07.04-.11l-.26.14Z"/>
    <path class="cls-3" d="M96.16,115.78s-.03,0-.06,0c-.34.06-.14.04.06,0Z"/>
    <path class="cls-3" d="M115.15,126.19c-.95.97,1.17-1.88-.22-.37.17-.11-.89,1.64.22.37Z"/>
    <path class="cls-3" d="M106.64,35.55c-.09.17-.18.34-.26.51.13-.23.21-.39.26-.51Z"/>
    <path class="cls-3" d="M114.93,125.81h0s-.14.16-.14.16c.06-.06.09-.1.14-.16Z"/>
    <path class="cls-3" d="M93.84,135.2c.05-.05.12-.15.19-.25-.02,0-.07.06-.19.25Z"/>
    <path class="cls-3" d="M101.96,115.01l-.13.26c.06-.1.1-.19.13-.26Z"/>
    <path class="cls-3" d="M89.9,146.09c-.12.27-.18.36-.31.75.02-.03.04-.07.07-.11.03-.15.09-.34.24-.64Z"/>
    <path class="cls-3" d="M85.55,157.32c.03-.06.08-.13.12-.19.04-.11.09-.24.13-.36l-.24.55Z"/>
    <path class="cls-3" d="M149.9,26.07c.2-.19.34-.29.46-.36-.22.07.77-1.4-.46.36Z"/>
    <path class="cls-3" d="M106.73,35.2c0,.08-.02.19-.09.35.06-.12.12-.24.18-.36,0-.04-.03-.06-.08,0Z"/>
    <path class="cls-3" d="M91.1,147.08l-.72,1.77c.21-.49.47-1.14.72-1.77Z"/>
    <path class="cls-3" d="M132.08,76.58l.23-.37c-.1.14-.18.27-.23.37Z"/>
    <path class="cls-3" d="M88.35,154.16c-.18.29-.35.62-.51.96-.01.08-.04.17-.04.22l.55-1.18Z"/>
    <path class="cls-3" d="M150.36,25.71h0s0,0,0,0Z"/>
    <path class="cls-3" d="M152.41,20.19c1.82-.16.83-.32,1.2-.49.14-.02.25-.03.34-.04.07,0,.12,0,.15,0,.06.01.06.04.03.08-.05.06-.06.07-.22.25.06-.02.11-.04.16-.06.06,0,.1.04.09.13,0,.05-.02.1-.05.17-.02.04,0,.03-.07.12l-.18.26c-.08.04-.2.19-.11-.03-.67,1.29-2.46,3.49-3.22,5-.09.09-.14.13-.18.14.26-.15.38-.11.42-.02-.47.67-.75,1.33-1.06,1.49.29-.41.26-.48.36-.7l-.44.74c-.63.5.61-1,.47-1.1-.9,1.41-1.87,3.11-2.67,4.11-.34.09,1.67-2.49.52-1.21l1.21-1.57c-1.17,1.03.72-.97-.4-.05-1.56,2.09-1.59,2.45-3.15,4.53-.24.55.26-.05.03.5-1.95,3.15-2.14,2.05-3.47,4.44-.28.66-.21,1.05-1.45,2.54l.17-.69c-1.48,2.05-.53,1.39-2.2,3.45.19-.44,1.08-1.67.83-1.37-1.15,1.28-.58,1.07-1.34,2.15l-.34.09c-1.49,2.23-3.14,4.7-4.79,7.18.04-.17.28-.63-.18-.1-2.08,3.13-4.65,6.52-6.85,9.4l-.64,1.24c-.19.26-.42.44-.25.13-.88,1.11.06.13-.27.73-.45.66-.7.8-.46.35-.13.23-.68,1.06-1.13,1.74-.45.68-.94,1.41-1.45,2.18,1.64-.32,3.41-.66,5.08-.98,1.14-.2,2.22-.37,3.1-.45l-.49.15c2.03-.28,2.2-.79,4.1-.94l-.35.1c1.74-.27,3.54-.6,5.29-.91.85-.15,1.69-.3,2.51-.44.38-.06.74-.11,1-.13-.25.32-.49.59-.66.74.01.02.01.04.01.06,0,.02,0,.05-.05.13-.08.15-.19.31-.31.5-.25.37-.56.81-.87,1.24-.61.86-1.18,1.69-1.1,1.91-1.59,1.98-1.24,1.34-3.37,4.2-.55.77-.6,1.31-1.24,2.3l-.19-.09-.73,1.44-.68.56-.58.94c.26-.36.61-.72.62-.63-.9,1.47-2.5,3.38-2.61,3.36l-2.17,3.46c-.02-.12.35-.7.61-1.18-1.06,1.91-.4.2-1.37,1.96.19-.19.02.19.03.25-.67.75-1.95,2.62-2.86,4.03l.07-.35c-1.74,2.47-3.56,5.3-5.48,8.09.74-.97.79-.6.24.24l-.4.21c-.25.61.66-.81.04.37-.74,1.03-.69.56-.33-.08l-.81,1.31c-.1.04.07-.28.06-.4-.06.14-.18.32-.33.53-.23.31-.5.68-.78,1.06-.71.96-1.55,2.12-1.96,2.83.22-.03.42-.07.6-.1l.05.06c1.51-.14,2.82-.27,4-.38.66-.07,1.26-.13,1.83-.19,1.15-.12,2.22-.23,3.6-.38.04-.19,1.12-.25,1.92-.47,1.01-.05,2.09-.11,3.21-.17.56-.03,1.14-.07,1.72-.11.46-.04.93-.08,1.41-.11.25-.07.37-.12.42-.17.06-.05.05-.09.33-.17-.06.06,0,.09.08.11-.29.29-.44.46-.44.32-.12.17-.22.31-.31.43-.33.44-.62.84-.93,1.25-.6.84-1.26,1.76-2.35,3.28.3-.28.6-.62.5-.4-.39.55-.99,1.18-1,1.05l.09-.15c-2.33,3.47-6.25,7.35-7.99,10.2l.1-.16-1.95,2.85c-.99,1.24.48-.83-.32.03-2.03,3.12-3.6,4.64-5.31,7.18-1.84,1.58-5.08,6.7-7.28,9.04l.21-.07c-.41.73-.66.75-1.05,1.22.13-.01.63-.65.37-.2-4.14,5.65-8.92,11.37-13.37,17.01-1.62,2.07-.42,1.56-2.66,4.01l.4-.88c-1.51,2.18-3.15,4.33-4.8,6.47l-.47.61-.27.36c-.19.27-.41.59-.84,1.24.23-.38.44-.77.5-.84.07-.14.11-.22.11-.25.1-.2.06-.16,0-.11-.07.07-.16.14-.28.31.12-.27.29-.43.47-.71.12-.19.04-.12.02-.18-.03-.05,0-.21.1-.25.03,0,.04.05.04.06-.01-.02-.01-.04.01-.12.12-.31.25-.66.37-.97.23-.62.39-1.08.18-.79.79-1.78,1.27-3.5,1.93-4.91.17-1.02,1.3-3.07,1.14-3.48.23.24,1.46-3.09,1.77-4.29-.06.42.47-.96.42-.47.5-1.31.92-2.53.68-2.36,1.27-2.28,1.61-4.95,2.57-6.15,1.36-3.95,2.65-7.59,3.94-11.11.23.23-1.47,3.88-1.12,3.84,1.17-3.36,1.68-5.37,3.02-8.64.37-.84-.07.53-.13.84.56-1.61,1.16-3.15,1.74-4.64.29-.75.57-1.49.85-2.21.4-1.08.79-2.14,1.18-3.19-.23.03-.45.07-.67.1.03-.02.33-.08.73-.15-.04.11-.08.25-.13.39.05-.13.1-.27.16-.42-.93.11-1.93.21-1.88.32l.99-.16c.67.02-.48.26-1.49.48-.57.12-.91.2-1.24.28-.32.08-.55.14-.58.17,1-.52-3.12.28-1.51-.41-.4.08-.91.2-.8.28-.61.05-.81.02-.21-.16-2.21.35-1.4.39-3.41.64,0-.07.4-.14.6-.24-1,.25-2.01.51-3.71.66.1-.05-.11-.08.4-.14-2.91.38-4.93.95-8.14,1.22.96-.41-1.28.06-.94-.23l-.54.12.04-.14-.19.25s.04.03.07.04l-.14.02c.14-.35.19-.58.37-1.08.22-.61.44-1.19.72-1.74l-.34,1.08,1.06-2.64-.71,1.45c.48-1.47-.35.03.49-1.81-.14.39.59-1.4,1.03-2.07h0c.22-.72.44-1.46.93-2.47.19-.24.16.32.28.17.1-.76,1.32-3.3,1.48-4.25-.07.31.04.37.11.29l.08-.64c.32-.63.39-.71.44-.57.85-1.94-.55.5.55-1.77-.06.19,0,.11-.14.5,1.04-2.3,1.79-4.53,2.76-6.64.49-.53-.73,1.89-.23,1.25,1.25-3.1,2.4-6.5,3.7-9.46l-.26.55c-.15-.55,1.09-2.15,1.57-3.73-.13.38-.02.56-.02.44.45-1.01.87-2.06,1.33-3.25.46-1.22.97-2.57,1.57-4.17-.03.15-.09.37-.11.5.26-.55.64-1.4,1.01-2.26-.73.03-1.49.06-2.22.09-.54.02-1.06.03-1.5.04-.41.11-1.22.13-.72.24-1.6-.12-3.13-.06-4.63.04-1.33.11-2.63.21-3.9.32.17-.34.36-.7.56-1.03l.36-.6.42-.66c-.21.41-.44,1.01-.27.69l1.44-2.95c-.26.16-.28.34-.71.9.11-.41.48-1.27.85-1.99-.59,1.36.22.1.6-.42-.09.07-.04-.14-.1-.12,1.04-1.4-.14-.4,1.1-2.39v.15c.38-.8.66-1.56,1.12-2.39.34-.27-.36.87-.26.99.6-1.18.91-2.48,1.62-3.46-.24.52-.57,1.25-.81,1.77.79-1.06.81-1.22,1.29-2.07l-.05.08,1.12-1.95-.31.48c.36-1.69,1.49-3.04,2.25-5.17-.75,2.06-.02.4.08.64.31-.48.77-1.22.71-.98.34-1.01.93-1.51,1.41-2.94.09-.03.53-1,.56-.71.59-1.24-.25.24-.27.1.78-1.98,2.54-4.3,3.68-7.14,1.1-2.39,1.13-2.92,2.17-5.14.47-.68-.1.71-.1.71.7-1.13,1.14-2.03,1.66-3.17-.07.25.1.04.34-.26.45-.9.1-.71.8-1.84-.04.24-.07.55-.23,1.01.48-1.08.95-2.16,1.44-3.29.25-.24-.19.74-.32,1.15.59-1.25,1.56-3.21,1.6-3.67l-.46.75c.22-.45.26-.16.11.19-.42,1.11-.84,1.48-.93,1.51l.37-.79c-.75.62-1.57,3.14-2.4,4.69l.09-.78-.63,1.71c-.24.31-.5.47-.13-.32-.7,1.05-.43,1.03-1.06,1.92-.08.09-.06.04-.02-.06l-.5,1.13c.06-.24-.27.09.12-.56-1.16,1.89-1.46,3.26-2.03,3.9l.07-.17c-1.33,2.76.04.36-.81,2.51l-1.16,1.14.04.36c-.15.28-.46.83-.47.69-.42,1.11.17-.14-.03.53-.87,1.26-1.86,3.76-2.31,3.92-.12.56.78-1.24.12.25-.52.25-.82,1.69-1.6,2.85.04-.46.73-1.59-.05-.43-.12.88-1.31,2.37-1.8,3.44.19.16-1.09,2.31-1.93,4.09-.01-.15-1.83,3.22-2.75,4.81v-.07c.04.43-.87,2.08-1.46,3.32-.1-.12-.04-.36.24-1.05l-.6,1.15c-.07.31-.22.68-.58,1.44v-.37c-.34.63-.63,1.29-.95,1.97-.08.18-.17.35-.25.53-.12.24-.24.48-.36.73-.25.48-.5.98-.77,1.5.47,0,.96-.02,1.48-.03.13-.09-.36-.19-.39-.3-.05-.11.27-.23,1.27-.33.05.09.18.24-.53.31.24-.02.8-.11,1.19-.09-.3.07-.61.13-1.03.2.64,0,.73-.03.84-.07.1-.04.18-.09.59-.1-.01.13.6.07.49.18-.2.02-.7-.02-1.01.04.91-.02,2.01.01,2.38.09-.08-.07,0-.18.66-.22,1.72-.09.6.13,1.6.15.41-.11,1.51-.06,1.53-.26.5-.02.6.07.8.11.22-.03.59-.06,1.01-.09.36-.03.77-.05,1.12-.08.46-.04.92-.1.69-.19h-.16s.08-.02.12-.02h0s0,0,0,0c.15-.02.3-.03.45-.05-.08.23-.18.49-.28.76l-.36.87c-.29.65-.58,1.3-.86,1.95-.59,1.29-1.18,2.58-1.67,3.85l-.06-.03c-.6,1.62-1.45,3.57-1.79,4.76-.2.47-.58,1.07-.56.83-.47,1.24-.45,1.4-1.29,3.12.41-1.27-.27.38.45-1.29-.72,1.56-.96,1.88-1.51,3.65.09-.64-.7,1.11-.96,1.88l.58-1.06c-.33.86-.66,1.59-.99,2.34l-.03-.49c-1.61,3.14-2.03,6.02-3.48,8.32-.22.92.84-1.72.68-.88-.65,1.48-1.6,2.91-1.79,3.38-.97,1.99-.5,2.03-1.47,4.14.19-.24.49-.42-.11,1.21-.65,1.48-1.07,1.71-.74.74.14-.36.24-.52.26-.5.18-.49.41-1.14.08-.58v.22c-.39.71-1.25,2.76-1.16,2.23-.4,1.16-.08.53.31-.29-.13.28-.25.54-.37.79-.14.32-.27.63-.4.92-.31.74-.6,1.44-.91,2.17.52-.06,1.06-.13,1.63-.2.29-.03.59-.07.9-.1.24-.02.5-.05.76-.07-.3,0-.76-.04-.33-.1,3.12-.28,1.35-.32,3.45-.61,1.21-.03-.39.34,1.71-.02,1.31-.08.3.17-.21.3,1.91-.39,3.62-.34,4.73-.45l-1.01.19c.6-.11,1.1-.17,1.61-.23l-.6-.09c.6-.05,1.11-.11,1.1-.04.6-.18-.5-.2.7-.49.81-.02,2.42-.38,2.72-.21-2.51.24.3.18-1.81.47.41-.07.91-.14,1.51-.18.09.01-.08.05-.24.09,2.42-.11,1.07-.37,3.56-.67-.3.16.6.15,1.01.08-1,.12-.5-.14.4-.34.31,0,.39-.01.54-.04.13-.02.25-.06.37-.09,0,.07-.02.16-.08.3l.18-.38h-.11c.06-.03.13-.05.21-.08,0,.07-.04.22-.1.42-.08.23-.17.5-.28.8-.06.04.03-.25.06-.34.04-.12.07-.22,0-.11,0,.1-.02.16-.06.31-.05.16-.11.32-.18.48-.13.32-.29.65-.46,1-.33.69-.7,1.43-.95,2.26-.36.72-.23,0-.54.63-.56,1.87-.91,1.9-1.53,3.85.36-.49.36-.6-.01.79l1.11-3.17-.56,2.09c.37-.94.68-2.03.92-2.58-.25,1-.25.89.05.49-.72,1.21-.86,2.61-1.59,4.05l-.35-.19c-1.03,2.18-1.36,4.06-2.58,6.94l.43-.91c0,.45-.68,1.81-.98,2.77-.09-.14-.36.44-.59.81.11-.01-.84,2.13-.69,2.49l-.67,1.24c-.98,2.33-.69,2.82-1.61,5.07.13-.73-.35.26.14-1.29-.29.76-.58,1.43-.5,1.47-.25.41-.65,2.16-1.03,2.81-.07.34.02.49-.32,1.34-.06.08-.06-.03-.06-.03.06.03-.43,1.36,0,.67-1.28,2.18-2.49,6.51-3.61,8.41-.3.83-.63,1.75-.96,2.65-.38,1.02-.76,2.02-1.08,2.88,0-.11-.08.03.09-.38-.66,1.52-.71,1.92-.71,2.19-.02.31.01.47-.68,2.08-1.14,2.35.35-1.22-.22.02-.45.69-.8,1.53-1.13,2.41-.33.89-.6,1.73-1,2.77.41-.53.73-.92.93-1.1l-.46.65c.41-.41,1.35-1.71,2.28-3.02.95-1.34,1.87-2.65,2.8-3.83,0,0-.09.19-.01.12.33-.53.71-1.09,1.1-1.66.29-.42.6-.88.92-1.36.65-.92,1.34-1.89,1.93-2.72-.25.61-.49.79-.12.59.54-.74-.38.04.69-1.43.43-.41,1.3-1.41,1.55-1.44l-1.04,1.37c.72-.56,1.35-1.77,1.93-2.47v.15c1.59-2.11,1.4-2.3,3.14-4.54l-.24.18c.74-1.39.9-.94,1.69-2.28l.49-.21c.57-.85,1.97-2.99,3.05-4.48-.48.94-1.7,2.7-2.41,3.83.62-.8,2.08-2.74,2.29-3.24-.23.34-.49.79-.77,1.08.59-1.11,1.5-2.47,2.73-4.07.19.59,3.3-4.1,4.5-5.02,2.02-2.95,4.37-5.57,6.87-8.89-1.21.93.73-.97.25-1.02.57-.78.8-1.07.87-1.13l1.98-2.18c.52-.48-.49.79-.36.77,1.31-1.66.68-.6,1.62-1.65-.29.14.28-.71,1.06-1.64l-1.18,1.24c1.63-2.48,1.83-1.83,3.47-4.33l-.47.83c.87-1.26,3.44-4.49,4.09-5.88.2-.19.51-.4.12.15,2.27-2.88,4.68-6.69,6.57-8.82l-.09.28c.39-.56.57-1.06,1.17-1.68,0,.06-.09.28.11.03.21-.33.93-1.5,1.6-2.28-.2.32-.27.48-.42.73.22-.27.43-.54.63-.79.3-.4.6-.78.88-1.14.53-.72,1.03-1.39,1.5-2.03-.83.1-1.62.2-2.39.3-.68.09-1.35.19-2.02.28-.85.14-1.71.28-2.7.4-.02-.29-2.83-.13-4.23-.05l.04-.05c-1.75.15-3.27.33-4.73.52-.72.1-1.42.2-2.14.3-.21.05-.49.12-.85.18.07-.14.17-.33.3-.55.05-.05.11-.1.17-.15.05-.05.21-.26.32-.39.24-.31.5-.66.78-1.03.55-.75,1.16-1.62,1.79-2.52,1.26-1.81,2.61-3.78,3.78-5.31-.38.45-.13-.21.23-.79.56-.71,1.24-2.17,1.39-1.9l-.19.26c.6-.41,1.59-1.98,2.42-3.17l-.15-.4c2.57-2.83,5.46-8.28,7.01-9.72.44-.8,1.09-1.73,1.53-2.53l.13.15c1.47-2.06,2.21-3.09,3.94-5.69l-.25.6c1.04-1.5.68-1.94,2.04-3.95.27-.23.57-.5.89-.8l.73-1.06c-1.98.32-3.96.64-5.94.95-1.4.22-2.79.48-4.14.84.04-.05.12-.15.61-.24-1.43.24-5.55.79-4.97,1.07-.08-.24-3.13.53-4.75.92l.22-.23c-.37.12-.34.16-.46.22-.1.06-.2.11-.32.15-.24.09-.51.18-1.03.3.02-.04.07-.13.14-.23.22-.26.41-.32.13-.01.33-.39.33-.46.39-.62.08-.19.08-.26.71-1.07l-.31.64c.93-1.29.81-1.22,1.2-2.02.52-.86,1.78-2.44,2.06-2.53.04-.23.43-1.02,1.01-1.76.12-.07-.04.23-.12.39,1.64-2.1,2.11-3.36,3.32-4.75.07,0,.17-.08.27-.19-1.23,1.72-2.22,3.11-2.14,2.97.14.1,1.15-1.28.56-.03.69-1.19,1.81-3.27,2.84-4.58.06-.06.12-.11.18-.15l-.08.15c.24-.3.42-.59.59-.88.33-.42.54-.68.84-1.1.23-.08,1.19-1.55,1.69-2.25-.19-.05.48-.94-.25-.18.09-.1-.07.14-.4.61-.07.11-.15.23-.19.31,0-.02.01-.04.02-.06-.32.46-.74,1.06-1.21,1.74.31-.6.65-1.22,1.28-1.93.15-.43.33-.89.44-1.15.89-.8,2.3-2.55,2.61-2.72,1.42-2.18,3.48-5.04,4.14-6.58.39-.63.57-.64.78-.83-.22.37-.52.78-.61,1,.78-1.26,2.5-3.6,2.51-4.03,1.17-1.46-.42.99,1.03-1.13l-.14.33c1.62-1.94,2.67-3.7,3.78-5.51.55-.9,1.12-1.82,1.77-2.78.33-.48.68-.97,1.06-1.47.41-.54.71-.9,1.41-1.77-.35.44-.51.64-.61.71.63-.85,1.25-1.71,1.89-2.57-.97.08-1.94.17-2.92.25-.74.07-1.47.14-2.21.21l-4.29.43c-2.86.28-5.7.53-8.47.63-1.79.09-1.96.26-3.04.48l-.4-.17-1.84.4c-2.62.41-4.6-.08-7.91.54l.44.1c-1.2.08-3.78.42-3.6.25-.12.04-.38.18-.85.15l-.05-.1-2.92.44c-2.29.13.32-.45-3.01-.17-1.23.15-3.49.62-3.02.65.5-.04,1.28-.05,1.33.05l-1.13.16c-.18.33-1.02.72,1.78.69l1.92-.36.64.09-1.63.16c.94.06,1.51-.12,2.16-.26.16.07.44.1.83.09l1.87-.46c.24.1-.83.32.45.27.88-.22-.88-.19.59-.42.94.06.68.2,1.75-.02.16.07-.07.14-.49.21.96-.18,2.56-.27,3.04-.48.98.09,3.26-.34,3.19-.04.3-.1,1.68-.38,2.57-.47-1.59.5,3.33-.28,2.93.14,1.17-.42,4.32-.53,6.44-.89-.12.04-.35.11-.53.11,1.2-.08,1.56-.02,2.33-.03.13-.27,1.99-.5,2.98-.75,1.49.12-.86.38-.38.58-.09-.2,2.53-.44,2.02-.57,1.14.05.97-.01,1.57.15.17-.34,1.04-.15,1.95-.43,1.64.01.45.27,2.22,0,.86.02-.72.28-.72.28ZM133.13,50.25h0c.21-.3.39-.56.5-.73-.1.15-.25.36-.5.73ZM131.07,53.18c.25-.35.57-.8.9-1.26.13-.07.1.08-.11.38.08-.18-.44.48-.79.89ZM136.5,47.74c-.31.48-.45.61-.52.65.15-.22.32-.48.55-.82,0-.02.01-.05.02-.07,0,.06-.01.13-.05.24Z"/>
    <path class="cls-3" d="M136.89,46.77c.04-.07.07-.11.12-.2-.08.09-.15.17-.23.25-.02.07-.05.14-.07.2.06-.08.12-.17.17-.25Z"/>
    <path class="cls-3" d="M97.58,74.61h.05s-.07,0-.09-.02c.03,0,.02.01.04.02Z"/>
    <polygon class="cls-3" points="134.26 73.25 134.31 73.27 134.45 72.99 134.26 73.25"/>
    <path class="cls-3" d="M89.28,68.5s.08-.08.16-.21c-.02,0-.08.1-.16.21Z"/>
    <path class="cls-3" d="M93.25,60.97l.62-1.04c-.27.44-.47.77-.62,1.04Z"/>
    <path class="cls-3" d="M96.35,55.21c0-.09,0-.12-.01-.15,0,0,0,.01,0,.01l.02.14Z"/>
    <path class="cls-3" d="M103.85,113.6c-.05.13-.1.27-.14.39-.31.91-.08.28.14-.39Z"/>
    <path class="cls-3" d="M83.94,109.36c-.1.32-.19.63-.3.95.23-.5.4-.9.3-.95Z"/>
    <path class="cls-3" d="M91.18,146.88h0c-.03.06-.05.13-.08.19l.08-.19Z"/>
    <path class="cls-3" d="M83.08,111.64c.25-.49.42-.92.56-1.33-.19.41-.41.9-.56,1.33Z"/>
    <path class="cls-3" d="M109.54,30.07l.15-.28s-.01-.02,0-.05l-.14.32Z"/>
    <path class="cls-3" d="M109.68,29.75l.14-.32c-.07.14-.14.27-.14.32Z"/>
    <path class="cls-3" d="M110.12,28.75l-.3.68c.12-.23.27-.5.3-.68Z"/>
    <path class="cls-3" d="M105.46,37.72v.12c.03-.05.02-.1,0-.12Z"/>
    <path class="cls-3" d="M104.26,40.07c.3-.55.86-1.33,1.22-2.13v-.1c-.11.41-1.05,1.64-1.22,2.23Z"/>
    <path class="cls-3" d="M98.44,49.43l1.07-1.93c-.24.31-.56.71-.11-.18-1.48,2.37.41-.43-.95,2.12Z"/>
    <path class="cls-3" d="M95.18,55.45c.52-1.07-.1-.04-.11-.11-.29.7-.36.87.11.11Z"/>
    <path class="cls-3" d="M92.15,87.96l-.11-.18c-.33.85.06.03.11.18Z"/>
    <polygon class="cls-3" points="89.3 97.02 89.74 96.24 89.76 95.79 89.3 97.02"/>
    <polygon class="cls-3" points="86.03 101.7 86.16 101.32 85.63 102.75 86.03 101.7"/>
    <path class="cls-3" d="M86.17,155.26l.3-.18c.19-.59.02-.8-.3.18Z"/>
    <path class="cls-3" d="M95.5,151.39c.32-.25.99-1.01,1.28-1.56-.5.63-1.06,1.22-1.28,1.56Z"/>
    <polygon class="cls-3" points="130.26 82.04 129.91 82.67 130.63 81.52 130.26 82.04"/>
  </g>
  <line class="cls-1" x1="142.14" y1="47.28" x2="139.44" y2="50.82"/>
  <g>
    <path class="cls-3" d="M85.82,141.79c.19.05.12-.06-.35-.29l-.39-.05.74.34Z"/>
    <path class="cls-3" d="M82.79,139.97c-.58-.22-1.27-.45-.97-.16.61.17.71.28,1.37.44.47.22.8.45.69.46.18.05.71.4,1,.45-.56-.4-1.33-.79-2.17-1.13-.16-.11.02-.06.08-.06Z"/>
    <path class="cls-3" d="M54.51,99.74l.04.32c0-.09-.02-.2-.04-.32Z"/>
    <path class="cls-3" d="M58.7,68.95c-.09.22-.12.32-.11.34.08-.21.14-.38.11-.34Z"/>
    <path class="cls-3" d="M61.25,64.22c-.06.1-.11.18-.17.27.07-.1.14-.2.17-.27Z"/>
    <path class="cls-3" d="M54.51,99.74c-.03-.28-.09-.55-.1-.84-.06-.05.02.43.1.84Z"/>
    <path class="cls-3" d="M76.63,136.52c.15.1.27.18.39.25l-.36-.25s-.02,0-.03,0Z"/>
    <path class="cls-3" d="M58.45,113.01l.11.23c.05.06.09.12.14.17l-.25-.4Z"/>
    <path class="cls-3" d="M63.61,122.3c-.13-.2-.27-.21-.36-.26.12.09.23.22.36.39.02,0,.02-.05,0-.13Z"/>
    <path class="cls-3" d="M74.97,134.72l.25.17c-.07-.04-.17-.12-.25-.17Z"/>
    <path class="cls-3" d="M55.97,105.82s.02-.06.01-.1c-.01,0-.02.04-.01.1Z"/>
    <path class="cls-3" d="M81.51,152.97s.01,0,.02,0c.01-.06,0-.08-.02,0Z"/>
    <path class="cls-3" d="M85.94,141.52l.16.06c.06.11.04.07.07.1v-.04s0-.1,0-.1h-.05s-.18-.02-.18-.02Z"/>
    <path class="cls-3" d="M66.96,56.28s-.02.02-.03.03c-.15.21-.06.09.03-.03Z"/>
    <path class="cls-3" d="M73.22,31.47c.94-.44-1.39.96.01.27-.15.04,1.13-.87-.01-.27Z"/>
    <path class="cls-3" d="M76.41,136.34l-.35-.26c.16.12.27.2.35.26Z"/>
    <path class="cls-3" d="M73.24,31.74h0s.14-.07.14-.07c-.06.03-.09.05-.14.07Z"/>
    <path class="cls-3" d="M84.51,42.36c-.05,0-.14.03-.23.06.01,0,.07,0,.23-.06Z"/>
    <path class="cls-3" d="M70.71,51.9l.32-.27c-.13.11-.23.19-.32.27Z"/>
    <path class="cls-3" d="M92.56,38.96c.22-.06.3-.07.59-.18-.03,0-.06,0-.09.02-.1.05-.24.1-.49.16Z"/>
    <path class="cls-3" d="M100.46,35.02s-.07.09-.11.13c-.04.08-.1.17-.14.25l.25-.39Z"/>
    <path class="cls-3" d="M60.39,140.89c.12.16.19.27.23.36-.05-.15.94.75-.23-.36Z"/>
    <path class="cls-3" d="M76.66,136.46c-.06,0-.13-.04-.25-.12.09.06.17.12.25.18.03,0,.05,0,0-.05Z"/>
    <path class="cls-3" d="M92.65,38l1.41-.43c-.39.12-.91.27-1.41.43Z"/>
    <path class="cls-3" d="M40.31,81.29l-.04.33c.02-.13.04-.24.04-.33Z"/>
    <path class="cls-3" d="M98.27,36.56l.4-.06s.07,0,.08-.02c0-.03.03-.08.04-.11l-.06.08s-.01,0-.02.02c-.01,0-.03.01-.05.01l-.39.08Z"/>
    <path class="cls-3" d="M60.63,141.26h0s0,0,0,0Z"/>
    <path class="cls-3" d="M68.1,147.16c-1.11-.81-.61-.27-.89-.37-1.34-.95-.54-.55-.94-.95-.83-.6-1.54-.98-2.11-1.49-.03-.06-.13-.16.02-.07-.9-.62-2.46-2.09-3.45-2.88-.06-.07-.09-.12-.09-.14.1.2.07.27,0,.28-.45-.43-.9-.73-1-.96.27.26.32.26.47.36l-.5-.42c-.33-.5.68.58.75.5-.97-.82-2.04-1.84-2.69-2.56-.04-.24,1.59,1.62.79.59l1,1.12c-.66-.96.63.65.05-.25-1.31-1.47-1.59-1.53-2.86-3.03-.34-.29.01.18-.33-.1-1.93-2.04-1.18-1.88-2.57-3.39-.38-.37-.69-.41-1.46-1.66l.41.32c-1.08-1.57-.8-.77-1.86-2.47.25.26.9,1.2.75.96-.63-1.14-.62-.69-1.14-1.54v-.25c-1.11-1.69-2.32-3.58-3.38-5.57.09.09.3.42.1-.07-1.36-2.49-2.57-5.49-3.42-8.09-.16-.31-.32-.62-.46-.95-.07-.23-.09-.45.01-.2-.29-1.03-.09-.03-.29-.5-.2-.58-.18-.78-.03-.43-.17-.44-.37-.98-.58-1.56-.18-.6-.38-1.24-.57-1.89-.41-1.29-.67-2.64-.83-3.62l.12.37c-.3-1.51-.59-1.66-.73-3.1l.07.27c-.29-1.65-.49-3.41-.69-5.06-.11-1.66-.26-3.23-.17-4.51-.09-.24-.09-1.07-.11-1.87.01-.8.04-1.56-.08-1.67.15-1.91.16-1.37.43-4.05.06-.72-.08-1.08,0-1.97h.12s.01-1.22.01-1.22l.22-.62c.02-.28.04-.56.08-.83-.07.33-.15.69-.18.64.05-.65.22-1.43.36-2.05.14-.62.27-1.08.3-1.09.14-1.02.36-2.02.53-3.04.03.08-.06.59-.11.99.23-1.64.18-.26.4-1.76-.08.19-.04-.12-.06-.16.28-.7.68-2.37,1.04-3.58v.26c.7-2.17,1.47-4.59,2.49-6.95-.4.83-.46.58-.17-.12l.24-.23c.12-.48-.36.7-.05-.25.4-.88.39-.53.21-.01l.42-1.09c.06-.05-.03.21-.01.3.09-.48.98-1.76,1.16-2.44l.06-.04c.55-1.16,1.01-1.97,1.42-2.73.42-.76.78-1.49,1.35-2.37-.07-.09.38-.77.64-1.35.41-.65.9-1.3,1.41-1.98.52-.67,1.01-1.42,1.59-2.14.75-1.06.16-.36.46-.86.14-.01,1.27-1.48.74-.68.66-.89,1.15-1.41,1.65-2.02.52-.59,1.01-1.29,1.97-2.32-.24.19-.5.43-.4.27.34-.38.84-.81.82-.72l-.09.1c2.02-2.47,5.48-4.8,7.28-6.54l-.1.1c.65-.57,1.34-1.1,2.02-1.65.97-.7-.53.49.22.01,1.06-.93,2.02-1.49,2.9-2.07.87-.58,1.73-1.07,2.7-1.69,1.64-.73,5.6-3.01,7.9-3.79h-.15c.54-.34.71-.26,1.15-.42-.08-.03-.66.19-.31.01,4.87-2.09,10.39-3.43,15.74-4.18,1.95-.31,1.06-.52,3.57-.65l-.69.21c.99-.16,1.99-.29,3.01-.34l1.52-.1.76-.04h.3c.09,0,.22-.02.27,0l-.08.14-.63,1.08c-.51.88-1.01,1.75-1.48,2.62.09-.22.06-.24.26-.58-.51.67-1.57,2.65-1.51,2.71-.32.53-.13.09-.36.39-.47.69-.96,1.87-1.27,2.21-.05.06.09-.22.16-.35-.24.49-1.3,2.18-.94,1.79-.56.88-1.02,1.74-1.47,2.51l.4-.23h-.33s-.11.29-.11.29c-.13.34-.29.69-.44.86,0,.03-.02.07-.07.09-.16.05-.39.11-.6.17h.11s0-.02,0-.02h-.05s-.04,0-.04,0c-.74.17-1.55.32-1.68.47.07-.19-2.6.42-3.46.85.29-.15-.8.19-.47,0-1.03.33-1.96.66-1.75.69-.98.2-1.88.66-2.7,1-.81.36-1.53.66-2.09.8-1.41.77-2.83,1.38-4.09,2.21-1.29.77-2.55,1.5-3.71,2.36,0-.1.65-.55,1.28-.99.66-.39,1.3-.76,1.2-.81-1.19.68-2.03,1.36-2.9,2-.44.31-.87.63-1.33.96-.47.33-.93.73-1.47,1.13-.57.41.27-.31.43-.48-2.14,1.7-4.1,3.33-5.76,5.1,0-.02.16-.22.32-.41-.33.35-.79.79-.69.8l.31-.35c.61-.47-1.13,1.54-1.14,1.65.38-.75-1.69,1.69-1.03.56-.21.23-.42.58-.34.55-.31.35-.43.44-.17.04-1.06,1.35-.6.94-1.59,2.13-.03-.03.16-.28.23-.43-.22.33-.44.65-.71,1.02-.25.38-.54.82-.94,1.34.03-.08-.09.03.14-.29-.64.93-1.18,1.72-1.68,2.57-.47.87-.97,1.74-1.64,2.78.23-.71-.5.68-.66.75l-.56,1.21.3-.44c-.52,1.04-.91,1.99-1.37,2.88.08-.28.21-.54.32-.8-.34.64-.57,1.34-.85,2l.52-1.11c-.38,1.11.22-.04-.41,1.37.11-.29-.45,1.07-.76,1.59h0c-.19.54-.32,1.12-.62,1.92-.11.2-.1-.22-.18-.1-.04.58-.86,2.58-.87,3.32.03-.24-.04-.27-.08-.2l-.02.49c-.16.51-.19.59-.23.49-.41,1.57.31-.45-.23,1.39.03-.15,0-.08.06-.39-.57,1.85-.66,3.66-1.01,5.39-.23.5.21-1.53,0-.96-.09.63-.18,1.28-.27,1.93-.07.65-.07,1.31-.11,1.97-.03.66-.07,1.31-.1,1.95-.04.64-.09,1.27-.07,1.89v-.46c.23.34-.07,1.84.05,3.09-.02-.31-.12-.4-.1-.32-.08,1.7.27,3.45.57,5.99l-.09-.31c.02,1,.42,2.59.57,3.66.11.3.22.91.22.53.05.84.24,1.63.45,2.39.21.77.44,1.52.66,2.25.2.74.5,1.44.76,2.14.26.7.5,1.4.69,2.12-.12-.33-.33-.77-.24-.51.3.78.59,1.57.98,2.31,0-.22-.09-.32-.24-.83.18.27.52.89.78,1.45-.53-1-.13.07.03.53,0-.09.09.05.1,0,.4,1.26.26.12.91,1.79l-.08-.06c.29.6.7,1.08,1.03,1.72.05.31-.4-.59-.5-.59.51.88,1.16,1.64,1.52,2.49-.23-.37-.55-.89-.78-1.26.39.93.47,1.02.82,1.67l-.03-.07c.25.52.59.98.89,1.47l-.22-.38c.96.88,1.47,2.13,2.64,3.39-1.14-1.22-.26-.15-.43-.18.25.36.64.9.49.77.59.57.79,1.1,1.62,1.9,0,.06.54.68.35.6.69.8-.11-.24-.01-.2.54.6,1.22,1.27,1.9,2.06.71.76,1.42,1.66,2.39,2.33,1.57,1.26,1.89,1.46,3.38,2.56.46.42-.5-.2-.5-.2.78.65,1.4,1.1,2.19,1.63-.18-.09-.03.05.18.26.62.45.49.19,1.27.84-.17-.07-.38-.14-.7-.33.73.54,1.57.9,2.37,1.38.17.19-.53-.21-.84-.35.91.53,2.35,1.39,2.68,1.47l-.55-.39c.33.2.12.18-.13.05-.81-.4-1.09-.72-1.11-.78l.58.33c-.45-.57-2.33-1.32-3.36-2.19l.54.2-1.18-.71c-.21-.21-.31-.4.23-.03-.72-.64-.72-.46-1.32-1.02-.06-.07-.03-.05.05,0l-.78-.52c.17.08-.05-.18.39.18-1.25-1.12-2.12-1.68-2.52-2.18l.11.09c-1.78-1.5-.25-.05-1.65-1.12l-.6-1.06-.24-.08c-.16-.18-.49-.53-.39-.5-.68-.59.07.15-.35-.17-.36-.46-.92-1.02-1.4-1.52-.44-.53-.79-.98-.8-1.14-.33-.26.64.91-.19-.01-.06-.41-.93-1.09-1.52-1.97.29.19.87,1,.29.12-.58-.36-1.18-1.68-1.71-2.39-.07.02-.36-.37-.73-.92-.39-.54-.85-1.25-1.22-1.9.11.05-1.37-2.46-1.91-3.74l.04.03c-.24-.18-.82-1.49-1.29-2.43.1,0,.21.16.48.65l-.41-.89c-.14-.19-.3-.45-.56-1.03.06.06.12.13.19.19-.47-1.21-1.03-2.42-1.54-4.01-.13-.06.19,1.35-.48-.31.04-.08.09-.17.27.26-.07-.14-.21-.5-.27-.81.1.22.18.44.29.65-.18-.74-.19-.36-.34-.95.08-.01-.07-.45.02-.39.05.15.11.52.2.74-.17-.67-.35-1.49-.36-1.77-.03.07-.1.03-.25-.46-.35-1.26-.03-.45-.19-1.2-.16-.29-.26-1.11-.38-1.11-.07-.38-.03-.46-.02-.61-.17-.65-.59-3.09-.58-2.33l.02.17s-.02-.07-.03-.11h0s0,0,0,0c-.3-1.07-.35-2.23-.45-3.38-.07-1.15-.22-2.28-.21-3.39h.04c-.06-1.31-.08-2.92-.15-3.86.03-.39.14-.91.17-.74.04-1,0-1.12.18-2.56,0,1.01.09-.34-.03,1.03.16-1.29.15-1.59.27-2.98.02.48.28-.95.35-1.56l-.22.89c.1-.69.2-1.29.31-1.9l.08.35c.15-.65.25-1.27.33-1.87.12-.59.24-1.16.35-1.71.24-1.09.37-2.14.85-3.05.12-.7-.5,1.36-.41.73.38-1.17.98-2.31,1.09-2.68.58-1.57.32-1.54,1.04-3.15-.13.19-.33.34.13-.89.49-1.13.76-1.31.5-.58-.11.27-.18.4-.19.38-.14.37-.32.86-.08.43l.02-.17c.14-.27.37-.8.55-1.2.22-.39.38-.67.32-.48.38-.84.11-.39-.22.21.78-1.36,1.09-2.2,1.9-3.59-.16.21-.32.39-.19.16,1.28-2,.46-.94,1.28-2.33.53-.74-.02.37.76-1.05.61-.78.21-.11.04.25.75-1.27,1.63-2.21,2.12-2.89l-.42.65c.25-.39.47-.7.69-1.01l-.33.3c.27-.37.51-.67.54-.63.25-.4-.35.18.17-.59.42-.44,1.14-1.46,1.37-1.54-1.25,1.44.23-.08-.78,1.18.19-.25.43-.54.73-.88.05-.04-.02.07-.09.17,1.26-1.32.38-.77,1.69-2.14-.11.22.4-.23.6-.46-.53.55-.34.18.11-.36.88-.83.87-.99,1.34-1.43-.19.15-.36.33-.53.5.11-.24.56-.65,1.18-1.23.09,0-.54.54-.3.36.62-.72,1.65-1.34,2.59-2.26.51-.34.13.07.57-.24,1.1-.98,1.31-.9,2.47-1.91-.39.21-.48.23.37-.45-.7.48-1.32,1.06-1.98,1.59l1.2-1.11c-.6.47-1.24,1.05-1.61,1.32.56-.54.52-.47.18-.31.92-.53,1.57-1.38,2.65-1.95l.1.21c.78-.46,1.44-.94,2.14-1.46.72-.49,1.53-.98,2.57-1.55l-.68.34c.23-.23,1.25-.76,1.92-1.13-.03.1.42-.08.73-.18-.06-.04,1.56-.75,1.69-.98l1-.36c1.79-.66,1.94-1.02,3.67-1.66-.49.27.31.03-.82.53.57-.24,1.09-.4,1.09-.45.36-.06,1.59-.61,2.15-.71.24-.11.29-.22.95-.42.08,0,0,.04,0,.04-.01-.06,1.03-.33.42-.27,1.03-.11,2.45-.46,3.8-.78h-.04s0,0,0,0h.03s.03,0,.03,0c.21-.06.42-.11.63-.17.18-.03.32-.15.42-.29.1-.13.16-.24.22-.36.12-.23.22-.46.31-.67l-.21.14h0s.12,0,.12,0l.08-.12c.19-.29.36-.55.53-.76.67-1.17,1.47-2.58,2.08-3.64-.02.08.03.02-.09.22.92-1.41.33-1.01,1.38-2.62.61-.78-.46.91-.11.41.36-.1,1.15-2.01,1.93-3.05l-.15.28c.29-.4.57-.93.89-1.54.16-.3.33-.62.5-.95.09-.16.18-.33.28-.5.13-.23.27-.46.41-.7,0,0-.03.1.04,0,.09-.17.18-.36.28-.56.03-.09.14-.22.11-.27-.13,0-.26.02-.39.03-.49.03-1.02.06-1.58.09-.85.07-1.76.15-2.54.22.48-.13.7-.09.4-.18-.7.06.21.15-1.17.26-.46-.03-1.46.05-1.6-.05l1.31-.15c-.68-.07-1.69.19-2.38.24l.08-.07c-2.01.22-2,.46-4.14.78h.23c-1.14.35-.99.09-2.12.45l-.38-.08c-.38.1-1.04.28-1.77.48-.73.23-1.53.47-2.2.68.73-.32,2.29-.82,3.28-1.08-.76.13-2.56.62-2.92.82.3-.1.67-.24.97-.29-.88.39-2.08.72-3.54,1.2.08-.19-.88.11-2,.47-1.13.34-2.37.88-2.94.96-2.51,1.09-5,2.11-7.81,3.61,1.11-.32-.81.45-.51.58-.63.39-.88.53-.94.55-.67.34-1.35.66-2,1.02-.49.23.56-.43.48-.43-1.39.85-.63.28-1.57.81.23-.05-.4.42-1.2.9l1.15-.63c-1.82,1.35-1.77.9-3.53,2.37l.54-.49c-.45.38-1.34,1-2.18,1.69-.82.7-1.63,1.42-2.01,1.86-.18.11-.43.24-.05-.11-1.09.89-2.17,2.03-3.24,3.05-1.01,1.09-1.96,2.12-2.76,2.87l.1-.2c-.34.4-.52.76-.99,1.21,0-.04.09-.2-.07-.02-.17.22-.83,1.12-1.31,1.62l.34-.49c-.95.99-1.51,1.89-2.09,2.7-.58.81-1.05,1.63-1.69,2.58-.15-.11-1.43,1.62-1.99,2.54v-.05c-.88,1.33-1.51,2.54-2.11,3.72-.63,1.16-1.1,2.38-1.74,3.71-.49.78-1.11,2.2-1.78,3.76-.61,1.58-1.26,3.29-1.73,4.69.17-.42.11.11-.04.61-.26.64-.42,1.86-.55,1.71l.07-.24c-.28.46-.63,1.84-.89,2.92l.17.23c-1.02,2.75-1.25,7.48-1.66,9.02-.04.7-.07,1.57-.07,2.26l-.11-.04c-.18,1.93-.18,2.91-.18,5.3-.03-.16-.07-.33-.09-.49.02,1.36.37,1.7.41,2.94l-.16.38c.07,1.18.14,2.36.21,3.54.13,1.18.26,2.35.5,3.49-.03-.03-.1-.09-.15-.47.17,1.1.6,4.26.78,3.81-.13.05.48,2.39.88,3.6l-.16-.16c.42,1,.47,1.02.9,2.46.08.35,0,.33-.1-.14.27,1.15.38.85.75,2.23l-.23-.49c.37,1.16.37,1.06.66,1.67.3.7.79,2.17.76,2.37.12.13.41.73.68,1.39,0,.1-.12-.13-.19-.24.75,1.89,1.3,2.73,1.84,4.02-.02.04,0,.13.05.24-.74-1.44-1.22-2.65-1.17-2.54-.09.04.41,1.25-.13.35.46.95,1.46,2.46,1.96,3.63.02.06.04.12.04.17l-.07-.11c.12.27.27.49.4.7.18.36.3.6.49.94,0,.17.67,1.34,1.02,1.9.07-.1.5.63.16-.1.05.09-.08-.09-.3-.47-.05-.08-.11-.18-.15-.24l.03.03c-.21-.37-.48-.86-.8-1.41.3.42.6.87.9,1.53.23.26.49.53.63.68.34.83,1.17,2.34,1.23,2.59.59.81,1.28,1.75,1.91,2.63.68.84,1.32,1.59,1.79,2.02.37.43.35.55.46.74-.22-.24-.45-.55-.59-.67.71.88,2.18,2.55,2.45,2.67.88,1.12-.64-.5.69.94l-.21-.16c1.24,1.48,2.37,2.57,3.62,3.6,1.21,1.08,2.54,2.09,4.06,3.59-.22-.2-.32-.31-.35-.37,3.66,3.23,8.12,5.87,12.28,8.26,1.2.66,1.37.64,2.15.94l.21.24,1.35.47c.24.09.44.18.7.29l.39.17c.12.03.3.21.32,0l.31-.76c.09-.21.18-.42.28-.64.37-.86.76-1.79,1.09-3.03l-.19.28c.32-.86.92-2.75.96-2.57.02-.09.02-.31.18-.63h.07s.65-2.16.65-2.16c.62-1.63.14.34,1.01-2.05.21-.65.49-1.71.57-2.13l.05-.24-.18-.05c-.17-.05-.24-.05-.15,0,.04.02.08.04.13.06l.15.07-.05.14c-.13.34-.32.77-.38.78.08-.29.19-.51.23-.87-.14.07-.49.06-.13.33l-.18-.41c-.12.16-.29.52-.57,1.17l-.39,1.43-.24.42.41-1.17c-.32.64-.39,1.08-.51,1.57-.08.1-.19.28-.3.55l-.32,1.43c-.13.14.08-.66-.28.24-.15.67.37-.56.05.52-.32.64-.31.42-.52,1.23-.08.09-.05-.08.04-.4-.19.72-.63,1.85-.66,2.24-.34.66-.81,2.36-.95,2.23-.02.12-.1.43-.19.8-.09.3-.18.65-.26.91,0-.17-.03-.15-.06-.12-.01.02-.03.05-.05.09-.02.03-.08-.03-.12-.03-.12-.05-.24-.11-.35-.16-.16-.08-.32-.15-.45-.22-.25-.13-.4-.23-.3-.25-.91-.19-3.01-1.34-4.47-2.03.09.03.26.09.38.17-.79-.45-.99-.63-1.48-.95-.18.08-1.42-.6-2.12-.93-.87-.72.67.2.45-.11-.02.14-1.71-.92-1.44-.63-.67-.54-.59-.44-.89-.79-.23.08-.68-.41-1.32-.72-.95-.79-.15-.33-1.29-1.07-.48-.43.53.22.53.22ZM47.02,123.2h0c.13.25.23.46.31.59-.07-.12-.15-.29-.31-.59ZM45.82,120.77c.15.3.33.67.52,1.06,0,.1-.07.03-.19-.22.09.12-.17-.46-.32-.84ZM47.8,126.24c-.23-.37-.28-.51-.29-.57.1.18.22.38.38.66,0,.01.03.03.04.04-.04-.03-.08-.06-.13-.12Z"/>
    <path class="cls-3" d="M48.3,126.85c.03.05.05.08.1.15-.04-.08-.07-.16-.11-.24-.04-.04-.07-.08-.11-.12.04.07.08.14.12.2Z"/>
    <path class="cls-3" d="M54.56,100.12v-.06s0,.09,0,.12c0-.04,0-.04,0-.06Z"/>
    <polygon class="cls-3" points="39.98 84.29 39.95 84.29 39.95 84.52 39.98 84.29"/>
    <path class="cls-3" d="M58.59,114.53s.02.09.06.19c0-.01-.02-.09-.06-.19Z"/>
    <path class="cls-3" d="M61.61,120.29c.13.28.29.54.46.8-.21-.34-.35-.59-.46-.8Z"/>
    <path class="cls-3" d="M64.36,124.48c.05.04.08.04.1.05h0s-.09-.05-.09-.05Z"/>
    <path class="cls-3" d="M69.93,51.59s.09-.1.13-.14c.32-.32.09-.11-.13.14Z"/>
    <path class="cls-3" d="M57.22,71.4c.08-.24.16-.48.24-.72-.17.39-.3.69-.24.72Z"/>
    <path class="cls-3" d="M92.5,38.05h0c.05-.01.1-.03.16-.05l-.15.05Z"/>
    <path class="cls-3" d="M57.89,69.66c-.18.38-.31.71-.42,1.02.14-.32.31-.69.42-1.02Z"/>
    <path class="cls-3" d="M80.36,138.97l.2.13s.02,0,.03,0l-.24-.13Z"/>
    <path class="cls-3" d="M80.6,139.1l.23.13c-.1-.07-.2-.12-.23-.13Z"/>
    <path class="cls-3" d="M81.33,139.51l-.49-.27c.17.1.37.23.49.27Z"/>
    <path class="cls-3" d="M74.92,135.19h-.09s.07.01.09,0Z"/>
    <path class="cls-3" d="M73.33,133.95c.34.34.87.85,1.43,1.22h.07c-.29-.13-1.13-.95-1.5-1.22Z"/>
    <path class="cls-3" d="M67.67,127.77l1.13,1.23c-.17-.24-.39-.56.14-.02-1.36-1.61.23.38-1.27-1.22Z"/>
    <path class="cls-3" d="M64.48,123.67c.52.73.04-.05.09-.02-.35-.45-.44-.56-.09.02Z"/>
    <path class="cls-3" d="M54.03,88.45l.1.1c.04-.69-.04,0-.1-.1Z"/>
    <polygon class="cls-3" points="54.36 81.25 54.18 81.91 54.22 82.25 54.36 81.25"/>
    <polygon class="cls-3" points="55.99 77.27 55.93 77.57 56.17 76.44 55.99 77.27"/>
    <path class="cls-3" d="M99.79,36.46l-.21.15c-.1.23-.18.39-.15.41.05,0,.21-.17.36-.56Z"/>
    <path class="cls-3" d="M96.13,23.29c-.3-.01-1.08.06-1.53.24.6-.14,1.22-.17,1.53-.24Z"/>
    <polygon class="cls-3" points="40.13 76.98 40.21 76.44 40.02 77.46 40.13 76.98"/>
  </g>
  <g>
    <path class="cls-3" d="M161.46,135.29c-.09.17.04.14.34-.28l.12-.37-.46.65Z"/>
    <path class="cls-3" d="M163.77,132.72c.3-.53.6-1.16.28-.91-.24.56-.36.65-.63,1.25-.3.41-.58.68-.57.58-.08.16-.51.61-.62.88.49-.46,1.01-1.13,1.49-1.88.14-.13.06.03.05.08Z"/>
    <path class="cls-3" d="M177.23,85.49v.32c.01-.09,0-.2,0-.32Z"/>
    <path class="cls-3" d="M167.79,56.05c.13.2.19.28.21.28-.12-.18-.23-.33-.21-.28Z"/>
    <path class="cls-3" d="M165,51.51c.06.1.12.18.17.26-.06-.11-.12-.21-.17-.26Z"/>
    <path class="cls-3" d="M177.23,85.49c0-.28,0-.56-.03-.83-.04-.05,0,.43.03.83Z"/>
    <path class="cls-3" d="M167.33,126.81c-.09.15-.15.28-.21.4l.21-.36s0-.02,0-.03Z"/>
    <path class="cls-3" d="M177.2,99.21l-.03.25c0,.08.02.15.03.22v-.47Z"/>
    <path class="cls-3" d="M175.28,109.58c.07-.23-.02-.34-.04-.44,0,.14-.01.32-.06.52.02,0,.05-.01.1-.08Z"/>
    <path class="cls-3" d="M168.88,124.99l-.13.27c.03-.07.09-.19.13-.27Z"/>
    <path class="cls-3" d="M177.65,91.67s.03-.06.04-.1c-.01,0-.03.04-.04.1Z"/>
    <path class="cls-3" d="M152.79,143.74s.01,0,.01.01c.04-.05.05-.07-.01-.01Z"/>
    <path class="cls-3" d="M161.69,135.48l-.11.13s0,.05.02.07l.08-.2Z"/>
    <path class="cls-3" d="M158.92,43.87s.02.02.03.03c.19.18.08.07-.03-.03Z"/>
    <path class="cls-3" d="M162.57,105.07c.37-.94-.32,1.6.2.18-.08.12.2-1.36-.2-.18Z"/>
    <path class="cls-3" d="M167.48,126.58l.21-.37c-.09.17-.16.29-.21.37Z"/>
    <path class="cls-3" d="M162.77,105.24h0s.05-.15.05-.15c-.02.06-.03.1-.05.15Z"/>
    <path class="cls-3" d="M143.28,45.41s.11-.09.17-.16c-.01,0-.06.03-.17.16Z"/>
    <path class="cls-3" d="M154.66,40.01l-.3-.28c.12.11.22.2.3.28Z"/>
    <path class="cls-3" d="M147.88,51.86c.15.16.2.22.42.43-.02-.02-.03-.05-.05-.08-.09-.07-.2-.16-.37-.36Z"/>
    <path class="cls-3" d="M153.69,58.67s-.05-.1-.08-.15c-.05-.07-.12-.15-.17-.23l.25.37Z"/>
    <path class="cls-3" d="M129.26,156.96c.2-.03.32-.04.42-.03-.16-.03,1.08-.47-.42.03Z"/>
    <path class="cls-3" d="M167.38,126.84c0-.06.04-.13.1-.25-.05.09-.1.17-.15.26,0,.03.01.04.05,0Z"/>
    <path class="cls-3" d="M148.77,51.5l.99,1.05c-.28-.3-.64-.68-.99-1.05Z"/>
    <path class="cls-3" d="M122.55,146.75l-.32.09c.12-.03.24-.06.32-.09Z"/>
    <path class="cls-3" d="M152.59,55.77c.13.23.28.46.44.69.04.04.09.09.13.11l-.57-.8Z"/>
    <path class="cls-3" d="M138.25,153.17c-1.22.58-.51.41-.73.61-1.44.74-.72.23-1.25.4-.9.45-1.58.84-2.28,1.12-.06,0-.2.05-.05-.05-.47.25-1.21.55-1.96.86-.77.27-1.56.53-2.13.8-.09.02-.14.02-.17.02.21,0,.27.07.25.13-.58.19-1.05.44-1.29.42.36-.11.37-.16.53-.24l-.59.24c-.59.05.81-.32.78-.42-.58.21-1.21.48-1.81.68-.61.19-1.19.36-1.65.46-.23-.08,2.14-.6.88-.4.48-.11.96-.2,1.43-.35-1.13.15.85-.27-.19-.16-1.87.5-2.07.62-3.95,1.08-.4.18.16.07-.24.25-2.66.71-2.19.09-4.13.66-.5.19-.67.4-2.11.48l.47-.21c-1.86.22-1.03.35-3,.5.34-.1,1.46-.24,1.17-.22-1.28.03-.88.22-1.86.3l-.21-.12c-1.99.14-4.18.42-6.4.38.12-.04.5-.08-.02-.12-.7,0-1.42.03-2.15,0-.73-.05-1.47-.11-2.2-.17-.73-.07-1.47-.11-2.18-.2-.71-.11-1.4-.23-2.07-.33l-1.03-.02c-.2-.03-.14-.07-.09-.09-.2-.07-.06.07-.26.09-.07,0-.12-.02-.14-.03.09-.09.15-.1.16-.07h0s.03-.08.06-.15l.03-.05.02-.03.06-.09c.08-.12.16-.25.25-.38.35-.51.72-1.06,1.1-1.61.76-1.1,1.56-2.19,2.18-2.95l-.2.33c.93-1.21.81-1.54,1.73-2.62l-.14.23c.88-1.22,1.81-2.49,2.69-3.71.38.02.75.03,1.11.05.42.01.84.02,1.24.03.8.02,1.55.04,2.23.06.48-.16,3.31-.11,3.5-.39,1.9-.09,1.37.04,4.04-.3.71-.11,1.03-.33,1.89-.53l.05.12c.39-.12.77-.26,1.15-.38h.66s.8-.23.8-.23c-.32.07-.7.12-.66.07.62-.19,1.39-.36,2.01-.5.62-.13,1.09-.23,1.11-.2.97-.33,1.93-.69,2.88-1.07-.05.07-.52.27-.9.42,1.51-.66.33.03,1.7-.6-.2.04.08-.11.1-.14.72-.22,2.28-.92,3.42-1.46l-.19.18c2.15-.81,4.28-2.21,6.51-3.47-.82.42-.71.19-.07-.19l.33-.04c.38-.31-.71.35.1-.23.81-.5.62-.22.18.11.33-.21.62-.47.93-.7.08,0-.13.17-.16.25.34-.34,1.71-1.06,2.19-1.57h.08c2.13-1.44,2.9-2.35,4.48-3.7-.04-.11.59-.63.99-1.1,1.14-1.02,2.32-2.25,3.59-3.58.85-.98.19-.34.53-.81.14,0,1.26-1.47.73-.67.67-.88,1.1-1.45,1.57-2.07.45-.64,1.03-1.28,1.7-2.51-.2.23-.39.51-.33.34.26-.44.65-.95.65-.86l-.06.12c.39-.69.84-1.4,1.31-2.12.24-.36.49-.72.73-1.09.21-.38.42-.77.63-1.15.82-1.52,1.68-2.96,2.06-4.16l-.04.14.84-2.46c.45-1.11-.19.7.19-.11.94-2.64,1.4-4.2,1.96-6.44.45-.81.68-2.39.97-4.02.14-.82.29-1.66.42-2.44.07-.79.14-1.52.24-2.12l-.08.13c-.02-.63.1-.75.16-1.21-.06.06-.12.67-.13.28.29-2.63.12-5.35.15-8.1l-.39-4.1c-.09-.68-.09-1.37-.25-2.04-.14-.67-.27-1.34-.41-2-.42-1.94-.56-1.03-1.01-3.48.12.21.23.43.32.65-.64-1.9-1.31-3.82-1.93-5.76-.73-1.9-1.54-3.75-2.48-5.47.13.2.17.18.33.53-.26-.79-1.41-2.72-1.5-2.68-.3-.53,0-.16-.16-.5-.35-.76-1.17-1.72-1.33-2.15-.03-.07.15.18.24.31-.31-.45-1.37-2.11-1.17-1.62-.78-1.25-1.66-2.27-2.33-3.22-.55-.54-1.55-1.98-1.84-2.05.21-.04-1.61-2.02-2.33-2.61.26.18-.53-.61-.22-.41-.76-.74-1.48-1.39-1.41-1.19-.64-.74-1.4-1.37-2.09-1.9-.34-.27-.66-.53-.95-.76-.14-.12-.27-.23-.39-.35l-.16-.17-.07-.08s0-.02,0-.03c-.03-.02-.06-.03-.09-.05l.05-.09.28-.41c.2-.3.41-.59.6-.89.4-.59.8-1.16,1.19-1.73.79-1.13,1.55-2.23,2.3-3.32.09.19-1.8,2.53-1.58,2.54.73-1.11,1.32-1.99,1.9-2.86.29-.43.59-.87.9-1.33.16-.23.33-.46.5-.71.16-.21.32-.44.5-.68.17-.2,0,.13-.21.48.12-.18.24-.36.36-.53l.3.23.65.51c.43.33.84.68,1.24,1.03.81.69,1.59,1.35,2.37,2.01-.02,0-.21-.16-.4-.31.34.31.76.76.78.67l-.34-.3c-.46-.6,1.5,1.09,1.61,1.11-.72-.39,1.62,1.67.53,1,.22.21.51.46.5.37.3.34.38.47.02.18,1.17,1.18.83.69,1.87,1.78-.03.02-.25-.19-.39-.27.59.49,1.12,1.05,1.93,2.03-.07-.04,0,.09-.24-.2.36.41.7.78,1.03,1.15.32.37.62.74.93,1.1.61.74,1.26,1.49,1.9,2.51-.54-.48.42.7.37.89l.77,1.03-.23-.47c.64.93,1.23,1.74,1.71,2.59l-.5-.68c.37.6.79,1.17,1.12,1.8-.17-.36-.37-.71-.56-1.06.66.94.12-.22.83,1.12-.16-.26.55.99.76,1.55h0c.32.46.64.94.97,1.72.05.22-.22-.08-.19.06.35.44,1.22,2.35,1.59,2.95-.12-.2-.2-.18-.18-.1l.28.38c.18.49.2.57.1.52.61,1.45-.03-.53.65,1.21-.07-.13-.05-.06-.19-.34.36.87.66,1.72,1,2.55.34.82.63,1.64.87,2.48.01.53-.5-1.42-.44-.83.81,2.35,1.72,4.87,2.18,7.23l-.08-.44c.26.28.32,1.77.61,2.95-.07-.29-.18-.36-.14-.29.12.82.28,1.64.46,2.57.16.93.31,1.98.51,3.22l-.09-.3c.08.97.18,2.55.25,3.6.09.31.08.91.15.54-.18,3.24.24,6.19-.26,9.05.02-.34,0-.82-.01-.55-.03.82-.09,1.63-.18,2.44.11-.18.09-.31.22-.82.02.31-.02,1.01-.09,1.61.07-1.1-.15,0-.25.46.04-.08.05.09.08.05-.32,1.25.18.24-.21,1.95l-.03-.1c-.08.65-.12,1.26-.25,1.95-.15.27.07-.7-.01-.76-.14.98-.17,1.96-.46,2.82.07-.42.18-1.01.25-1.43-.33.93-.32,1.05-.49,1.75l.02-.07c-.14.54-.26,1.09-.43,1.62l.14-.4c-.07,1.26-.56,2.46-.9,4.1.33-1.6-.01-.28-.09-.44-.16.4-.4,1-.37.81-.16.78-.45,1.23-.7,2.32-.05.03-.3.79-.33.59-.33.97.15-.2.16-.11-.22.76-.57,1.62-.99,2.55-.44.92-.89,1.92-1.28,2.99-.82,1.78-.81,2.19-1.64,3.82-.36.51.12-.51.12-.51-.53.84-.89,1.49-1.31,2.33.06-.18-.06-.03-.23.2-.38.64-.14.5-.72,1.31.05-.17.11-.39.26-.72-.43.77-.85,1.54-1.3,2.34-.19.17.21-.52.34-.82-.49.9-1.44,2.23-1.52,2.56l.41-.52c-.21.31-.19.11-.04-.13.43-.77.76-1.02.82-1.04-.11.19-.23.37-.35.55.59-.41,1.37-2.23,2.09-3.33l-.15.55c.21-.4.39-.81.57-1.23.18-.23.35-.35.06.23.53-.78.36-.76.83-1.42.06-.07.04-.03,0,.04l.41-.83c-.06.17.18-.08-.12.4.89-1.4,1.09-2.44,1.5-2.93l-.05.13c.96-2.09,0-.24.58-1.87l.74-.94-.02-.25c.1-.22.29-.64.3-.54.27-.84-.11.12.02-.38.52-1.02,1.06-2.95,1.34-3.13.06-.41-.45,1-.08-.16.31-.26.4-1.35.81-2.31,0,.34-.35,1.26.06.3,0-.33.18-.8.36-1.31.17-.51.36-1.05.46-1.48-.13-.08.46-1.86.69-3.32.01.05.18-.62.39-1.48.17-.86.37-1.9.5-2.58l.02.04c-.08-.28.14-1.68.21-2.71.08.05.1.24.07.8l.11-.96c-.02-.23,0-.54.05-1.16l.08.25c.12-1.29.08-2.6.23-4.26-.1-.1-.31,1.3-.34-.45.06-.06.15-.13.17.33,0-.15-.03-.54,0-.84l.08.7c.06-.75-.07-.4-.05-1,.08.01.07-.45.13-.36,0,.15-.04.53-.02.76.03-.68.09-1.5.16-1.78-.05.06-.09,0-.12-.5-.04-1.29.08-.44.1-1.2-.06-.31-.03-1.14-.15-1.15,0-.38.04-.45.07-.6-.09-.66-.25-3.11-.31-2.35v.17s0-.07,0-.11h0s0,0,0,0c-.29-2.17-.42-4.53-.86-6.66h.04c-.23-1.28-.62-2.82-.88-3.71-.08-.38-.13-.9-.05-.75-.29-.95-.36-1.04-.67-2.44.33.94-.03-.35.32.97-.31-1.25-.31-1.56-.85-2.84.24.42-.18-.96-.4-1.54l.21.88c-.23-.65-.39-1.23-.61-1.8l.24.27c-.4-1.26-.86-2.36-1.35-3.37-.5-1-.93-1.93-1.23-2.9-.37-.6.54,1.33.18.81-.44-1.11-.92-2.32-1.06-2.67-.66-1.53-.9-1.28-1.68-2.84.07.22.06.46-.61-.65-.6-1.05-.61-1.37-.17-.74.16.25.22.37.2.37.21.33.47.77.28.33l-.12-.11c-.25-.55-1.16-1.96-.88-1.67-.53-.76-.27-.29.07.3-.38-.68-.71-1.2-1.03-1.72-.35-.51-.71-1.01-1.15-1.69.12.22.21.45.07.24-1.3-1.96-.64-.81-1.63-2.07-.5-.76.34.15-.69-1.08-.56-.81-.03-.24.24.04-.94-1.12-1.68-2.16-2.21-2.81l.53.56c-.32-.34-.56-.62-.81-.92l.22.4c-.28-.36-.53-.65-.5-.67-.35-.31.12.37-.55-.27-.38-.47-1.3-1.3-1.35-1.54,1.27,1.41-.05-.24,1.07.92-.22-.22-.48-.49-.78-.83-.04-.06.06.03.15.11-1.18-1.39-.65-.54-2-1.85.22.11-.22-.4-.46-.6.55.53.18.34-.36-.11-.84-.87-.96-.89-1.44-1.3.18.16.35.33.52.5-.22-.12-.67-.52-1.32-1.05-.02-.09.6.47.39.26-.8-.5-1.49-1.5-2.57-2.24-.44-.41.04-.14-.36-.49-.2-.14-.33-.23-.61-.45-.24-.19-.44-.35-.63-.51-.29.37-.53.68-.82,1.05-.19.24-.4.52-.68.95.33-.3.36-.38-.19.55l1.64-2.39-.36.56-.17.27-.11.18-.42.69c.39-.57.82-1.19,1.13-1.65.17.13.32.25.44.35-.19-.13-.34-.23-.43-.29-.25.4-.18.31.02.11.01.01.03.04.06.06l-.05-.05c-.19.21-.43.52-.59.75-.15.21-.29.42-.43.64-.29.44-.58.9-.96,1.35l-.17-.17c-1.14,1.4-1.77,2.66-3.19,4.53l.47-.59c-.11.31-.83,1.18-1.25,1.81-.02-.1-.32.26-.55.5.04.03-.66.93-1.14,1.75.11.07.19.11.24.13l.53.49.37.36c1.42,1.22,1.8,1.19,3.11,2.44-.46-.3.11.29-.82-.48.44.41.83.78.88.75.23.27,1.27,1.09,1.62,1.53.2.16.32.16.78.66.04.06-.03.02-.03.02.03-.03.77.73.43.24,1.11,1.51,3.43,3.92,4.19,5.38.8,1.04,1.71,2.35,2.34,3.36-.06-.05-.04.02-.15-.18.81,1.43.73.75,1.6,2.41.36.9-.55-.83-.3-.29-.09.35,1.14,1.96,1.54,3.17l-.15-.27c.35.9,1.11,2.08,1.69,3.54,0,0-.05-.06-.04,0,.57.93,1.21,2.87,1.73,4.3-.24-.42-.27-.64-.27-.33.23.64.1-.24.55,1.04.08.44.34,1.38.28,1.53l-.4-1.21c.07.66.53,1.57.62,2.24l-.08-.07c.44,1.91.6,1.9,1.04,3.96v-.22c.41,1.1.11.96.36,2.08l-.12.37c.12.75.46,2.63.64,3.98-.21-.76-.45-2.34-.63-3.31.09.75.31,2.54.43,2.92-.05-.3-.13-.68-.14-.98.11.45.24.98.3,1.59.04.61.07,1.29.08,2.04-.32-.26.05,3.92-.41,4.99-.07,1.32-.14,2.64-.34,3.99-.27,1.34-.56,2.74-.82,4.25.43-1.03-.15.89.12.76-.17.7-.26.96-.29,1.02l-.73,2.06c-.21.48.13-.67.06-.62-.45,1.51-.28.61-.62,1.59.13-.18,0,.57-.33,1.4.21-.37.32-.78.48-1.17-.21,1.09-.48,1.5-.69,1.93-.22.43-.44.85-.78,1.91l.18-.68c-.2.53-.56,1.51-.92,2.49-.41.96-.88,1.89-1.03,2.44-.12.17-.29.37-.09-.08-1.13,2.47-2.81,5.36-4.02,7.09l.06-.21c-.24.45-.42.78-.85,1.25,0-.04.08-.2-.07-.01-.15.22-.74,1.13-1.18,1.64l.3-.5c-.86,1.01-1.4,1.88-2.01,2.62-.62.74-1.19,1.45-1.94,2.28-.14-.14-1.54,1.4-2.4,2.01v-.04c-1.16,1-2.12,1.89-3.05,2.77-.98.82-1.99,1.57-3.13,2.43-.39.22-.89.54-1.46.93-.6.34-1.29.72-2,1.12-1.44.78-2.93,1.75-4.29,2.21.41-.15,0,.15-.46.37-.63.24-1.64.86-1.61.67l.22-.09c-.53.04-1.74.69-2.76,1.05l-.09.26c-1.37.34-3.1.95-4.72,1.41-1.61.47-3.1.83-3.88.83-.65.19-1.48.32-2.14.49l.02-.12c-1.86.25-2.79.35-5.1.54l.47-.11c-1.3.08-1.63.42-2.84.46l-.37-.16c-.59.01-1.18,0-1.78-.02l-2.05-.1-1.13,1.56c-.32.45-.62.91-.92,1.38,0-.04,0-.13.21-.43-.64.88-2.55,3.33-2.13,3.15-.14-.07-1.4,1.92-2.08,2.96l.02-.22c-.5.93-.49.98-1.31,2.19-.22.27-.25.19.04-.16-.34.43-.45.61-.58.84-.18.29-.34.56-.81,1.19.08.01.19.03.32.05l-.39-.02.18-.31c-.11.15-.2.28-.25.34.67.09,1.01.12,1.28.14.3.02.44.01.73.01.75.05,2.24.32,2.41.45.17-.03.82-.04,1.52.02.09.04-.17.05-.3.05,1.99.19,2.97.1,4.34.24.03.04.12.06.23.07-1.59-.01-2.86-.17-2.74-.15,0,.1,1.28.21.25.28.52,0,1.22-.02,1.95-.03.73-.04,1.48-.07,2.11-.05.06.01.12.02.17.04h-.13c.29.02.55.01.79,0,.4.02.65.03,1.04.03.15.11,1.47-.03,2.11-.06-.06-.11.78-.14-.01-.19.1,0-.12.02-.54.05-.1.01-.21.02-.27.03.01,0,.03,0,.04-.01-.42.02-.97.09-1.59.07.51-.04,1.03-.13,1.74-.11.33-.09.69-.18.88-.24.88.09,2.58.11,2.82.14,1.94-.31,4.58-.59,5.73-1.09.54-.13.64-.06.85-.07-.31.08-.69.15-.85.21,1.08-.26,3.23-.63,3.44-.89,1.37-.29-.73.33,1.13-.18l-.24.11c.93-.18,1.76-.39,2.55-.62.78-.26,1.51-.56,2.25-.84.75-.28,1.5-.57,2.31-.88.8-.34,1.67-.67,2.67-.99-.28.09-.41.14-.48.14,4.47-1.71,8.88-4.26,12.84-6.8,1.15-.69,1.19-.89,1.8-1.44l.3-.08,1.03-.95c1.55-1.23,2.83-1.96,4.62-3.73l-.3.15c.71-.56,2.01-2.03,1.98-1.84.06-.08.15-.27.43-.49l.06.03c.49-.55,1.01-1.08,1.48-1.65,1.17-1.26,0,.37,1.67-1.51.6-.72,1.61-2.11,1.35-1.88-.25.28-.66.7-.73.68l.54-.66c-.04-.24.24-.84-1.23.63l-.87,1.16-.37.29.8-.92c-.52.46-.75.84-1.03,1.24-.11.05-.27.18-.47.39-.26.41-.57.76-.86,1.14-.17.07.35-.55-.36.09-.41.53.57-.34-.17.48-.55.43-.46.24-.98.86-.11.05-.01-.1.2-.34-.48.54-1.32,1.38-1.55,1.68-.61.39-1.82,1.62-1.88,1.44-.14.18-.87.94-1.37,1.38.82-.91-1.98,1.49-1.87,1.11-.3.34-.93.85-1.64,1.4-.72.53-1.56,1.04-2.19,1.53.07-.06.19-.18.32-.25-.76.48-1,.57-1.5.86,0,.09-.29.35-.66.62-.38.26-.83.55-1.13.78-1.03.41.49-.49.11-.44.11.08-1.59,1.04-1.22.95-.77.33-.65.32-1.09.41-.03.25-.66.42-1.24.81-1.14.44-.36-.03-1.53.6-.59.22.44-.35.44-.35ZM107.76,160.43h0c.27,0,.51,0,.65,0-.14,0-.33,0-.65,0ZM105.09,160.38c.32.02.73.06,1.15.05.09.04,0,.08-.28.08.15-.02-.48-.06-.88-.13ZM110.76,161.19c-.43.04-.57.03-.63,0,.2,0,.44-.03.74-.05.01,0,.04-.01.05-.02-.04.02-.09.05-.17.07Z"/>
    <path class="cls-3" d="M111.52,160.99c.06,0,.1-.01.17-.02-.09,0-.17,0-.25,0-.05.02-.1.03-.15.04.08,0,.16-.01.23-.02Z"/>
    <path class="cls-3" d="M177.24,85.87v-.06s0,.09,0,.12c0-.04,0-.04,0-.06Z"/>
    <polygon class="cls-3" points="119.63 147.49 119.62 147.46 119.4 147.53 119.63 147.49"/>
    <path class="cls-3" d="M176.53,100.56s-.03.08-.05.19c0,0,.03-.09.05-.19Z"/>
    <path class="cls-3" d="M175.39,106.81l-.23.87c.1-.38.17-.65.23-.87Z"/>
    <path class="cls-3" d="M174.11,111.51c0,.06,0,.09.02.1h0s-.02-.1-.02-.1Z"/>
    <path class="cls-3" d="M154.41,40.79c-.05-.04-.1-.08-.15-.12-.35-.27-.12-.08.15.12Z"/>
    <path class="cls-3" d="M168.79,58.69c-.14-.21-.27-.41-.41-.62.19.36.35.64.41.62Z"/>
    <polygon class="cls-3" points="148.66 51.38 148.65 51.38 148.77 51.5 148.66 51.38"/>
    <path class="cls-3" d="M167.86,57.12c.18.37.35.67.52.94-.16-.3-.34-.65-.52-.94Z"/>
    <path class="cls-3" d="M164.97,130.45l-.14.19s0,.02,0,.03l.14-.22Z"/>
    <path class="cls-3" d="M164.83,130.67l-.14.22c.07-.1.13-.18.14-.22Z"/>
    <path class="cls-3" d="M164.4,131.36l.29-.47c-.11.16-.25.35-.29.47Z"/>
    <path class="cls-3" d="M168.4,125v-.08s-.01.07,0,.08Z"/>
    <path class="cls-3" d="M169.33,123.27c-.2.42-.64.99-.93,1.57v.07c.09-.3.81-1.2.93-1.64Z"/>
    <path class="cls-3" d="M173.11,115.97l-.61,1.54c.14-.25.33-.59.07.12.86-1.91-.24.37.54-1.66Z"/>
    <path class="cls-3" d="M174.81,111.12c-.24.86.07.01.07.06.11-.56.13-.69-.07-.06Z"/>
    <path class="cls-3" d="M175.42,74.45l.12.06c-.19-.66-.04,0-.12-.06Z"/>
    <polygon class="cls-3" points="172.82 67.86 173 68.5 173.2 68.76 172.82 67.86"/>
    <polygon class="cls-3" points="171.94 63.71 172.07 63.98 171.58 62.94 171.94 63.71"/>
    <path class="cls-3" d="M152.66,57.45l-.03-.24c-.3-.35-.47-.34.03.24Z"/>
    <path class="cls-3" d="M163.46,81.53c0,.3.14,1.03.23,1.48-.03-.6-.16-1.19-.23-1.48Z"/>
    <polygon class="cls-3" points="126.23 144.65 126.72 144.44 125.78 144.79 126.23 144.65"/>
  </g>
</svg>