<?xml version="1.0" encoding="UTF-8"?>
<svg id="Layer_1" data-name="Layer 1" xmlns="http://www.w3.org/2000/svg" viewBox="0 0 762.1 250.53">
  <defs>
    <style>
      .cls-1 {
        fill: #272727;
      }

      .cls-2 {
        fill: #0281c9;
      }
    </style>
  </defs>
  <circle class="cls-2" cx="420.52" cy="93.21" r="54.31"/>
  <path class="cls-1" d="M56.29,172.5h14.44c.47,19.26,8.39,26.55,27.49,26.55s27.18-6.52,27.18-21.27c0-11.18-5.28-15.84-20.03-19.41l-20.19-4.81c-15.84-3.73-25.16-13.82-25.16-30.13,0-19.88,13.82-31.37,37.74-31.37s39.13,13.2,38.82,36.34h-14.29c0-16.15-8.07-23.76-24.38-23.76-15.37,0-23.45,6.06-23.45,18.32,0,10.87,6.37,15.68,18.48,18.48l20.5,4.81c17.86,4.19,26.4,13.51,26.4,30.9,0,22.52-14.6,34.47-41.62,34.47s-42.08-12.89-41.93-39.13Z"/>
  <path class="cls-1" d="M172.19,158.06h-5.9v52.02h-14.44v-116.47h14.44v52.49h6.52l41.93-52.49h17.24l-47.21,58.08,49.54,58.39h-18.48l-43.64-52.02Z"/>
  <path class="cls-1" d="M248.02,198.43h28.42v-93.66h-28.42v-11.65h41.77v105.31h28.57v11.65h-70.35v-11.65ZM276.44,60.51h13.35v17.08h-13.35v-17.08Z"/>
  <path class="cls-1" d="M524.91,198.43h28.42v-93.66h-28.42v-11.65h41.77v105.31h28.57v11.65h-70.35v-11.65ZM553.33,60.51h13.35v17.08h-13.35v-17.08Z"/>
  <path class="cls-1" d="M339.23,93.62h14.6v104.04h61.18v12.42h-75.78v-116.47Z"/>
  <path class="cls-1" d="M503.4,210.08h-75.78s0-12.42,0-12.42h61.18v-104.04s14.6,0,14.6,0v116.47Z"/>
  <path class="cls-1" d="M651.31,93.62h15.99l38.51,116.47h-15.68l-9.63-32.3h-43.17l-9.78,32.3h-14.91l38.67-116.47ZM676.78,165.36l-17.08-57.46h-1.24l-17.39,57.46h35.72Z"/>
</svg>